<!--?xml version="1.0" encoding="utf-8"?-->
<!-- Generator: Adobe Illustrator 18.1.1, SVG Export Plug-In . SVG Version: 6.00 Build 0)  -->

<svg version="1.1" id="_x32_" xmlns="http://www.w3.org/2000/svg" xmlns:xlink="http://www.w3.org/1999/xlink" x="0px" y="0px" viewBox="0 0 512 512" style="width: 256px; height: 256px; opacity: 1;" xml:space="preserve">
<style type="text/css">
	.st0{fill:#4B4B4B;}
</style>
<g>
	<path class="st0" d="M80.159,459.434v42.796c0,5.394,4.376,9.77,9.78,9.77h58.033c5.394,0,9.77-4.376,9.77-9.77v-29.871H130.16
		C112.024,472.359,94.987,467.656,80.159,459.434z" style="fill: rgb(255, 255, 255);"></path>
	<path class="st0" d="M354.269,472.359v29.871c0,5.394,4.376,9.77,9.77,9.77h58.032c5.394,0,9.771-4.376,9.771-9.77v-42.796
		c-14.829,8.223-31.876,12.925-49.992,12.925H354.269z" style="fill: rgb(255, 255, 255);"></path>
	<path class="st0" d="M365.709,0H146.292C86.916,0,38.786,48.129,38.786,107.505v261.41c0,50.379,40.995,91.374,91.374,91.374
		h251.69c50.379,0,91.364-40.995,91.364-91.374v-261.41C473.214,48.129,425.084,0,365.709,0z M162.911,48.261h186.187v31.041
		H162.911V48.261z M106.874,148.551c0-13.486,10.951-24.426,24.446-24.426h249.37c13.495,0,24.426,10.941,24.426,24.426V251.69
		c0,13.495-10.93,24.436-24.426,24.436H131.32c-13.495,0-24.446-10.941-24.446-24.436V148.551z M130.16,395.701
		c-15.744,0-28.507-12.762-28.507-28.506c0-15.745,12.763-28.508,28.507-28.508c15.735,0,28.497,12.763,28.497,28.508
		C158.657,382.939,145.895,395.701,130.16,395.701z M312.134,430.977H205.25v-46.542h106.884V430.977z M381.85,395.701
		c-15.744,0-28.508-12.762-28.508-28.506c0-15.745,12.763-28.508,28.508-28.508c15.735,0,28.497,12.763,28.497,28.508
		C410.347,382.939,397.585,395.701,381.85,395.701z" style="fill: rgb(255, 255, 255);"></path>
</g>
</svg>