<!--?xml version="1.0" encoding="utf-8"?-->
<!-- Generator: Adobe Illustrator 18.0.0, SVG Export Plug-In . SVG Version: 6.00 Build 0)  -->

<svg version="1.1" id="_x32_" xmlns="http://www.w3.org/2000/svg" xmlns:xlink="http://www.w3.org/1999/xlink" x="0px" y="0px" viewBox="0 0 512 512" style="width: 256px; height: 256px; opacity: 1;" xml:space="preserve">
<style type="text/css">
	.st0{fill:#4B4B4B;}
</style>
<g>
	<path class="st0" d="M478.406,218.816l-31.205-118.84c-6.391-33.914-39.824-58.406-80.008-58.406H144.807
		c-40.184,0-73.617,24.488-80.008,58.406L33.506,218.86C13.75,228.375,0,248.555,0,271.844v74.938
		c0,32.352,26.473,58.828,58.826,58.828h16.799v37.008c0,15.363,12.453,27.812,27.812,27.812h23.291
		c15.36,0,27.811-12.449,27.811-27.812V405.61h202.922v37.008c0,15.363,12.451,27.812,27.813,27.812h23.289
		c15.36,0,27.813-12.449,27.813-27.812V405.61h16.799c32.355,0,58.826-26.477,58.826-58.828v-74.938
		C512,248.524,498.207,228.312,478.406,218.816z M102.785,343.68c-18.621,0-33.715-15.094-33.715-33.715
		c0-18.621,15.094-33.715,33.715-33.715s33.715,15.094,33.715,33.715C136.5,328.586,121.406,343.68,102.785,343.68z M301.406,343.68
		h-90.813v-46.972h90.813V343.68z M83.615,213.02l26.846-101.988l0.444-2.062c1.906-11.262,17.115-20.426,33.902-20.426h222.386
		c16.787,0,31.996,9.164,33.9,20.426l27.32,104.051H83.615z M409.215,343.68c-18.621,0-33.715-15.094-33.715-33.715
		c0-18.621,15.094-33.715,33.715-33.715s33.717,15.094,33.717,33.715C442.932,328.586,427.836,343.68,409.215,343.68z" style="fill: rgb(255, 255, 255);"></path>
</g>
</svg>
