<?xml version="1.0" encoding="utf-8"?>
<!-- Generator: Adobe Illustrator 28.1.0, SVG Export Plug-In . SVG Version: 6.00 Build 0)  -->
<svg version="1.1" id="レイヤー_1" xmlns="http://www.w3.org/2000/svg" xmlns:xlink="http://www.w3.org/1999/xlink" x="0px"
	 y="0px" viewBox="0 0 800 600" style="enable-background:new 0 0 800 600;" xml:space="preserve">
<style type="text/css">
	.st0{fill:url(#SVGID_1_);}
	.st1{fill:#6C88FF;}
	.st2{fill:#8DE880;}
	.st3{fill:#7DC470;}
	.st4{fill:none;stroke:#CCCCCC;stroke-width:5;stroke-miterlimit:10;}
	.st5{fill:none;stroke:#CCCCCC;stroke-width:9;stroke-miterlimit:10;}
	.st6{fill:#EA4E86;stroke:#FFFFFF;stroke-miterlimit:10;}
	.st7{fill:#FFFFFF;}
	.st8{fill:#43C889;stroke:#FFFFFF;stroke-miterlimit:10;}
	.st9{fill:#F9EDA0;}
	.st10{fill:#AC3CDC;}
	.st11{fill:#40BDE0;}
	.st12{fill:#231815;}
</style>
<g id="bk">
	
		<linearGradient id="SVGID_1_" gradientUnits="userSpaceOnUse" x1="1" y1="302" x2="801" y2="302" gradientTransform="matrix(1 0 0 -1 0 602)">
		<stop  offset="0" style="stop-color:#AC3DDC"/>
		<stop  offset="0" style="stop-color:#2D2D55"/>
		<stop  offset="1" style="stop-color:#404079"/>
		<stop  offset="1" style="stop-color:#404079"/>
	</linearGradient>
	<rect x="1" class="st0" width="800" height="600"/>
</g>
<g id="_全体完成">
	<g>
		<path class="st1" d="M304.3,145.2c-26.1,4.7-30.6,15.5-33.2,17.8c-5.1,5.8-8.6,18-10.7,32l-1.2,3.6c-2.6,4.5-4.5,16.2-3.7,21.4
			c0.2,1.5,0.4,2.4,0.6,2.9c2,6.2-2.4,8.4-2.9,14.9l5.9,20.2c1.8,16,26.1,20.2,32,8.3l3.2-9.6c4.3-12.8,20.3-22.6,33.6-20l22.5,5.9
			l8.3,3.6l8.3,13l10.1,9.4c4.3,4,9.4,6.8,15,8.4l8.7,2.4c5.9,1.6,12,2.3,18.1,2.1l16.4-0.6c5.8-0.2,11.6-1.1,17.2-2.8l7.8-2.3
			c8.9-2.7,15.6-10.2,16.9-19.3c0.6-4.6,0.6-9.7,0-14.9c-1.2-35.6-47.5-36.8-47.5-36.8s-18.7,1.3-33.2,7.1L368,222.6l-15.4,4.7
			c-0.7,0-11.5-2.1-20.2-3.8c-5.5-1.1-11.1-7.2-15.2-12.6c-2-2.7-2.5-6.2-1.4-9.3c5.4-15.6,23.7-58.5,5.9-58.5"/>
		<path class="st2" d="M368.4,495.2V411c20.6,22.6,46.9,38.8,72.4,38l7.1,26.1l-79.5,20.2V495.2z"/>
		<path class="st2" d="M566.5,438.3l-54.6,2.2v-81.7h-3.5c-1.7,35.1-15.4,66-58.2,86.6l7.1,27.3l50.5-13.2l58.6-14.5v-6.7
			L566.5,438.3z"/>
		<path class="st2" d="M332.8,365.9l8.3-85.4L329.2,252l2.4-11.9c-9.5-5.7-19.9-1.7-31.4,14.3l-7.8,18.9c-8.1,1.3-14,7.4-19,22.5
			L244.9,361l46.3,40.3"/>
		<polygon class="st2" points="357.7,402.7 322.1,409.8 284.1,475 287.7,488.1 357.7,504.7 		"/>
		<polyline class="st2" points="307.9,415.7 316.2,402.7 358.9,393.2 359,316.1 347,316.1 341.1,371.8 311.4,396.7 298.4,407.4 		
			"/>
		<polyline class="st2" points="192.8,413.3 237.9,485.7 253.3,491.6 277,486.9 272.3,475 303.1,422.8 237.9,368.3 		"/>
		<path class="st2" d="M341.1,125.1h11.6l38.2,8.3V96.6H348c-3.6,0.1-7.2,4-7,7.1L341.1,125.1L341.1,125.1z"/>
		<path class="st3" d="M342.6,141.7h3.6l48.3,11.9l38.3-1.2c16.4-1.4,31.2-3.7,44.7-7.1l4.7,13c1.8,11.8-0.2,27-9.5,46.3
			c-4.1-3.4-9.1-5-15.4-7.1l-33.3-5.2c-3.1-0.5-6.2-0.3-9.2,0.6l-69.9,21.2l-3.6-3.6c-8,1.3-11.8-1.9-13-5.9
			C338.5,178.1,343.6,156.7,342.6,141.7L342.6,141.7z"/>
		<polygon class="st2" points="521.4,299.5 564.7,299.5 587.4,322.1 589,428.8 521.4,431.8 		"/>
		<polygon class="st2" points="597.3,441.8 577.9,441.8 574.8,443 574.8,428.9 589,428.8 589,434.7 		"/>
		<path class="st2" d="M655.5,306.6l3.6,134.1h-49.4l-9.9-9.5l-1.2-109.5c0-1.3-0.4-2.5-1.2-3.6l-2.4-3.2"/>
		<path class="st2" d="M489,240.7h76.1l6.1,3V290h-99.4l1.5-1.5c8.1-8.2,13-19,14.1-30.5L489,240.7L489,240.7z"/>
		<polyline class="st2" points="568.9,290 571.2,292.9 571.2,290 		"/>
		<polygon class="st2" points="579.5,240.1 623.4,240.1 623.4,300.6 589,306.6 579.5,298.3 		"/>
		<path class="st2" d="M485.8,141.7l61.7-14.2l20.2-1.2l-14.2,32v68.8h-66.4c-1.6-6.3-4.5-11.3-8.3-15.4l9.5-17.8
			c3.1-11.2,4.9-27.1,3.6-38l-5.9-14.2L485.8,141.7z"/>
		<polygon class="st2" points="402,96.6 402,136.3 455,132.2 542.8,112 510.4,87.1 422.6,87.1 		"/>
		<rect x="471.6" y="298.3" class="st2" width="40.3" height="9.9"/>
		<path class="st3" d="M341.1,249.6l11.9,28.5l-3,26.9h110.6v-19.8h-52.3c-20.1,0-38.4-11.3-47.4-29.2l-5.5-8.7l-13-4.7l-1.2,7.1
			L341.1,249.6z"/>
		<polyline class="st2" points="578.2,127.6 566.4,162.1 565.3,225.9 654.3,225.9 654.3,127.6 579.3,127.6 		"/>
		<path class="st4" d="M186.9,413.3l52.8-53.2l29.1-66.7l-14.2-28.5l-14.8-37.4L117,210.3c0,0-41.3,26.5-40,35
			c0,0,81.8,146.7,110,167.9L186.9,413.3z"/>
		<polyline class="st4" points="187.4,413.9 234.9,489.9 253.9,497 278.8,491 363,511.2 363,396.5 319,406.2 285.9,462.6 
			277.6,475.6 283.5,492.2 		"/>
		<path class="st5" d="M236.1,231.2l26.1-80.7c12.9-9.1,28.4-13.7,45.1-16.6l39.1-1.2l49.8,10.7c33.4,0.3,62.9-1.9,84.2-9.5
			l66.4-14.2h157.8"/>
		<path class="st4" d="M335.7,132.8c5.9,15.3-3.6,44.1-12,68.7c-1.2,3.4-0.1,7.2,2.6,9.4c4,3.2,8,5,12.3,4.7s3.6,1.7,3.1,3.6
			l-7.2,31l11.9,28.5l-9.2,90L291.8,408"/>
		<path class="st4" d="M341.8,219.2l65.8-19.5c6.3-2.1,10.6-4.1,17.1-2.9l30.2,4.9c12.1,2.2,22.1,10.8,26.3,22.3
			c7.6,21.1,0.5,49.9-9,59.3l-4.7,4.7v24.3"/>
		<path class="st4" d="M479.9,139.4l7.7,19.5c1.8,19.9-5.8,40.4-15.4,54.6"/>
		<polyline class="st4" points="574.2,123.3 558.8,161.2 558.8,195.7 558.8,231.2 		"/>
		<line class="st5" x1="483.9" y1="233.6" x2="572.4" y2="233.6"/>
		<polyline class="st4" points="363,502.2 578.9,446 663.7,446 660.8,301.2 587.4,311.9 567.1,294.1 516.1,294.1 516.1,436.5 
			570.6,434.1 570.8,448.1 		"/>
		<path class="st4" d="M607.4,447.2l-13-14.2v-99.7c0.3-8.2-0.9-15.8-7-21.4"/>
		<line class="st4" x1="344.6" y1="311.9" x2="516.1" y2="311.9"/>
		<path class="st4" d="M453.9,478.5l-10.1-36.1c-25.9,4.1-52.8-10.3-80.8-45.9"/>
		<path class="st4" d="M516.1,353.8h-11.7c-2.2,44.9-23.2,73.7-60.6,88.6"/>
		<line class="st4" x1="363" y1="396.5" x2="363" y2="311.9"/>
		<polyline class="st4" points="562.3,233.6 575.4,240.7 575.4,301.8 		"/>
		<line class="st4" x1="516.1" y1="294.1" x2="467.4" y2="294.1"/>
		<polyline class="st5" points="570.6,233.6 631.1,233.6 631.1,307.8 		"/>
		<path class="st4" d="M335.7,132.8l0.6-29.7c0.2-6.1,6.6-11.3,12.7-11.3h47.2v49.3"/>
		<path class="st4" d="M557.6,116.2l-46.3-34.4L428.8,82c-5-0.1-10,0.8-14.6,2.8l-17.9,7.7"/>
		<line class="st4" x1="237.7" y1="362.2" x2="309.2" y2="422.7"/>
		<line class="st5" x1="632.9" y1="233.6" x2="704.7" y2="233.6"/>
		<line class="st4" x1="363" y1="510" x2="363" y2="528.4"/>
		<line class="st4" x1="282.4" y1="492.2" x2="282.4" y2="529.6"/>
		<line class="st4" x1="660.6" y1="230" x2="660.6" y2="115"/>
		<g>
			<path class="st6" d="M282.6,566.4h79.7c4.2,0,7.6,3.4,7.6,7.6v2.6c0,4.2-3.4,7.6-7.6,7.6h-79.7c-4.2,0-7.6-3.4-7.6-7.6V574
				C275,569.8,278.4,566.4,282.6,566.4z"/>
			<path class="st7" d="M341.1,530.4l-7.3-7.3l-5.8-5.8l-5.5-5.6l-26.8,26.8l4,4l3.6-3.6v21h38.5v-21l3.6,3.6l4-4L341.1,530.4
				L341.1,530.4z M338.4,556.7h-11.3v-12.5H318v12.5h-11.4v-21l15.9-15.9l15.9,15.9V556.7L338.4,556.7z"/>
			<g>
				<path class="st7" d="M297.5,571h4.1c0,2.3,0.3,6.6,4.7,9.2c-0.3,0.2-0.9,0.9-1.1,1.2c-2.5-1.5-3.8-3.8-4.4-6
					c-0.9,2.7-2.3,4.7-4.5,6c-0.2-0.3-0.8-0.9-1.2-1.1c2.4-1.2,3.9-3.7,4.5-6.8l0.7,0.2c0-0.5-0.1-0.9-0.2-1.3h-2.7V571L297.5,571z"
					/>
				<path class="st7" d="M318.2,576.4h-4.8c-0.1,0.2-0.2,0.4-0.3,0.6h4.2h0.8c0,0.1,0,0.2,0,0.3c-0.2,2.4-0.4,3.4-0.7,3.7
					c-0.3,0.4-0.7,0.4-1.5,0.4s-0.3,0-0.5,0c0-0.3-0.1-0.8-0.3-1.1c-0.3,0.5-0.7,0.9-1,1.2c-0.2-0.3-0.7-0.6-1-0.8
					c0.8-0.6,1.5-1.7,2-2.8h-0.7c-0.6,1.2-1.7,2.4-2.7,3.1c-0.2-0.3-0.6-0.6-0.9-0.8c0.9-0.5,1.7-1.3,2.4-2.3h-0.7
					c-0.5,0.5-1,0.9-1.5,1.3c-0.2-0.2-0.6-0.6-0.9-0.8c0,0,0.1,0,0.2-0.1l0,0c-0.9,0.4-1.7,0.8-2.4,1.1c0,0.1,0,0.2-0.2,0.2
					l-0.6-1.6c0.4-0.1,0.9-0.3,1.5-0.5V574h-1.2v-1.3h1.2v-2.5h1.6c0,0.2,0,0.3-0.3,0.3v2.2h1.1v1.3h-1.1v2.9l1-0.4c0,0,0,0,0.2,1
					c0.4-0.4,0.8-0.8,1-1.3h-1.4V575h7.6v1.2L318.2,576.4z M317.3,570.7v4h-5.7v-4H317.3z M316,572.2v-0.6h-3.1v0.6H316z M316,573.7
					v-0.6h-3.1v0.6H316z M316,578.1c-0.2,0.8-0.6,1.6-1.1,2.3c0.4,0,0.7,0,0.8,0s0.2,0,0.3-0.1c0.2-0.2,0.3-0.8,0.4-2.2h-0.5H316z"
					/>
				<path class="st7" d="M328.8,573.3v1.4h-2.5c0,0-0.1,0.1-0.2,0.2c-0.4,2.5-1.4,4.9-3.8,6.3c-0.3-0.3-0.9-0.7-1.3-0.9
					c2.2-1.2,3.3-3.3,3.6-5.5H322c-0.5,0.9-1.1,1.6-1.7,2.3c-0.3-0.2-0.9-0.5-1.4-0.7c1.4-1.3,2.6-3.5,3.1-5.5l1.8,0.4
					c0,0.1-0.2,0.2-0.3,0.2c-0.2,0.5-0.5,1.3-0.8,2h6.2L328.8,573.3z M326.5,570.8c0.5,0.4,1.1,1.2,1.4,1.7l-0.7,0.5
					c-0.3-0.5-0.9-1.3-1.3-1.7l0.7-0.5H326.5z M328.3,570.2c0.5,0.4,1.1,1.1,1.4,1.6l-0.7,0.5c-0.3-0.5-0.9-1.2-1.3-1.6l0.7-0.5
					H328.3z"/>
				<path class="st7" d="M330.5,575h9.9v1.5H331c0,0.1-0.2,0.2-0.4,0.2V575H330.5z"/>
				<path class="st7" d="M348.7,577.4c-1-0.6-2.5-1.3-3.7-1.8v5.5h-1.6v-10.4h1.9c0,0.2-0.1,0.4-0.4,0.4v3.3l0.3-0.4
					c1.3,0.5,3.1,1.2,4.3,1.9L348.7,577.4L348.7,577.4z"/>
			</g>
		</g>
		<g>
			<path class="st8" d="M677.7,190.3h79.7c4.2,0,7.6,3.4,7.6,7.6v2.6c0,4.2-3.4,7.6-7.6,7.6h-79.7c-4.2,0-7.6-3.4-7.6-7.6v-2.6
				C670.1,193.7,673.5,190.3,677.7,190.3z"/>
			<path class="st7" d="M736.1,155.5l-7.3-7.3l-5.8-5.8l-5.5-5.6l-26.8,26.8l4,4l3.6-3.6v21h38.5v-21l3.6,3.6l4-4l-8.3-8.2V155.5z
				 M733.5,181.8h-11.3v-12.5h-9.1v12.5h-11.4v-21l15.9-15.9l15.9,15.9L733.5,181.8L733.5,181.8L733.5,181.8z"/>
			<g>
				<path class="st7" d="M693.1,199v3.8c0.7,1.2,2.2,1.2,4.2,1.2s3,0,4.1-0.1c-0.2,0.3-0.4,1-0.5,1.4c-0.9,0-2.1,0-3.3,0
					c-2.7,0-4.1,0-5.2-1.4c-0.5,0.5-1.1,0.9-1.5,1.3c0,0.1,0,0.2-0.2,0.2l-0.7-1.6c0.5-0.3,1.1-0.7,1.6-1.1v-2.5h-1.4v-1.3h2.8
					L693.1,199z M691.4,194.6c0.7,0.5,1.6,1.2,2,1.8l-1.1,0.9c-0.4-0.6-1.2-1.4-1.9-1.9L691.4,194.6L691.4,194.6z M698.2,202.8
					c-1.4,0.2-2.9,0.4-3.8,0.6c0,0.1-0.1,0.2-0.2,0.2l-0.5-1.5h0.8v-7.3h5.6v4.6l1.1,0.9c0,0-0.1,0-0.2,0s0,0-0.1,0
					c-0.4,0.3-1.1,0.7-1.6,0.9c0.5,0.5,1.2,0.9,2,1.1c-0.3,0.3-0.7,0.8-0.9,1.2c-0.9-0.3-1.7-0.8-2.2-1.5L698.2,202.8L698.2,202.8z
					 M698.8,195.9h-2.9v0.6h2.9V195.9z M695.9,198.2h2.9v-0.7h-2.9V198.2z M695.9,199.4v2.4c0.6,0,1.3-0.1,2-0.2
					c-0.5-0.6-0.8-1.4-1.1-2.2H695.9z M698.1,199.4c0.1,0.3,0.3,0.6,0.5,0.9c0.4-0.3,0.9-0.6,1.2-0.9H698.1z"/>
				<path class="st7" d="M713.2,200.3h-4.8c-0.1,0.2-0.2,0.4-0.3,0.6h4.2h0.8c0,0.1,0,0.2,0,0.3c-0.2,2.4-0.4,3.4-0.7,3.7
					c-0.3,0.4-0.7,0.4-1.5,0.4s-0.3,0-0.5,0c0-0.3-0.1-0.8-0.3-1.1c-0.3,0.5-0.7,0.9-1,1.2c-0.2-0.3-0.7-0.6-1-0.8
					c0.8-0.6,1.5-1.7,2-2.8h-0.7c-0.6,1.2-1.7,2.4-2.7,3.1c-0.2-0.3-0.6-0.6-0.9-0.8c0.9-0.5,1.7-1.3,2.4-2.3h-0.7
					c-0.5,0.5-1,0.9-1.5,1.3c-0.2-0.2-0.6-0.6-0.9-0.8c0,0,0.1,0,0.2-0.1l0,0c-0.9,0.4-1.7,0.8-2.4,1.1c0,0.1,0,0.2-0.2,0.2
					l-0.6-1.6c0.4-0.1,0.9-0.3,1.5-0.5v-3.5h-1.2v-1.3h1.2v-2.5h1.6c0,0.2,0,0.3-0.3,0.3v2.2h1.1v1.3h-1.1v2.9l1-0.4c0,0,0,0,0.2,1
					c0.4-0.4,0.8-0.8,1-1.3h-1.4v-1.2h7.6v1.2L713.2,200.3z M712.4,194.6v4h-5.7v-4H712.4z M711.1,196.2v-0.6H708v0.6H711.1z
					 M711.1,197.7v-0.6H708v0.6H711.1z M711.1,202c-0.2,0.8-0.6,1.6-1.1,2.3c0.4,0,0.7,0,0.8,0s0.2,0,0.3-0.1
					c0.2-0.2,0.3-0.8,0.4-2.2H711.1L711.1,202z"/>
				<path class="st7" d="M723.9,197.3v1.4h-2.5c0,0-0.1,0.1-0.2,0.2c-0.4,2.5-1.4,4.9-3.8,6.3c-0.3-0.3-0.9-0.7-1.3-0.9
					c2.2-1.2,3.3-3.3,3.6-5.5h-2.6c-0.5,0.9-1.1,1.6-1.7,2.3c-0.3-0.2-0.9-0.5-1.4-0.7c1.4-1.3,2.6-3.5,3.1-5.5l1.8,0.4
					c0,0.1-0.2,0.2-0.3,0.2c-0.2,0.5-0.5,1.3-0.8,2h6.2L723.9,197.3z M721.6,194.7c0.5,0.4,1.1,1.2,1.4,1.7l-0.7,0.5
					c-0.3-0.5-0.9-1.3-1.3-1.7l0.7-0.5H721.6z M723.4,194.1c0.5,0.4,1.1,1.1,1.4,1.6l-0.7,0.5c-0.3-0.5-0.9-1.2-1.3-1.6l0.7-0.5
					H723.4z"/>
				<path class="st7" d="M725.5,199h9.9v1.5H726c0,0.1-0.2,0.2-0.4,0.2L725.5,199L725.5,199z"/>
				<path class="st7" d="M743.7,201.3c-1-0.6-2.5-1.3-3.7-1.8v5.5h-1.6v-10.4h1.9c0,0.2-0.1,0.4-0.4,0.4v3.3l0.3-0.4
					c1.3,0.5,3.1,1.2,4.3,1.9L743.7,201.3z"/>
			</g>
		</g>
		<path class="st9" d="M370.1,317.8v76.3c45.4,55.5,88.2,57.8,120.4,0c0,0,9.5-33,8.9-45.1l10.7-0.3v-30.8h-140V317.8z"/>
		<path class="st9" d="M185.7,405c-36.8-51.5-70.8-105.3-102-161.3l35.6-26.1L228.4,233l7.7,2.7l25.5,57.8l-26.1,64.1L185.7,405
			L185.7,405z"/>
		<g>
			<circle class="st10" cx="180" cy="290" r="65.5"/>
			<g>
				<path class="st7" d="M142.6,265.1c-0.5-0.3-1.6-0.7-3-0.7c-2,0-2.8,1.2-2.8,2.2s0.9,2.1,3.1,3c2.7,1.2,4,2.6,4,4.9
					s-2.1,4.9-5.8,4.9s-3.2-0.5-4-1l0.6-2.1c0.9,0.5,2.2,1,3.6,1c2,0,3.1-1,3.1-2.5s-0.9-2.3-2.8-3.1c-2.5-1-4.2-2.5-4.2-4.8
					s2.1-4.6,5.4-4.6s2.8,0.4,3.5,0.8l-0.6,2.1L142.6,265.1z"/>
				<path class="st7" d="M158.5,279.2H156v-7.6h-6.8v7.6h-2.5v-16.7h2.5v6.9h6.8v-6.9h2.5V279.2z"/>
				<path class="st7" d="M174,279.2h-2.7l-1.5-4.9h-5.1l-1.4,4.9h-2.6l5.1-16.7h3.1L174,279.2z M169.5,272.4l-1.3-4.4
					c-0.3-1.1-0.6-2.3-0.8-3.3l0,0c-0.2,1-0.5,2.2-0.8,3.3l-1.3,4.4h4.3H169.5z"/>
				<path class="st7" d="M176.4,262.7c1.2-0.2,2.7-0.3,4.3-0.3c7.1,0,8.6,4.4,8.6,8.1l0,0c0,3.1-0.9,5.3-2.4,6.7
					c-1.5,1.5-3.9,2.2-6.8,2.2s-2.7,0-3.6-0.2v-16.4L176.4,262.7z M179,277.3c0.4,0,1,0,1.6,0c3.8,0,6-2.2,6-6.8s-2.1-6.2-5.7-6.2
					s-1.5,0-2,0.2v12.7L179,277.3z"/>
				<path class="st7" d="M205.1,270.7c0,5.8-3.1,8.8-7.2,8.8s-7-3.5-7-8.5s2.9-8.7,7.2-8.7S205.1,265.9,205.1,270.7L205.1,270.7z
					 M193.6,270.9c0,3.4,1.5,6.5,4.4,6.5s4.4-3,4.4-6.6s-1.4-6.5-4.4-6.5s-4.5,3.3-4.5,6.6H193.6z"/>
				<path class="st7" d="M225.9,262.5l-4.3,16.7H219l-1.8-8.1c-0.4-1.9-0.8-3.6-1-5.4l0,0c-0.3,1.8-0.6,3.4-1.1,5.4l-2,8.1h-2.7
					l-3.9-16.7h2.7l1.7,7.9c0.4,2.1,0.8,4.1,1.1,5.8l0,0c0.3-1.8,0.7-3.8,1.2-5.9l1.9-7.9h2.5l1.7,7.9c0.4,2,0.8,3.9,1,5.8l0,0
					c0.3-2,0.7-3.8,1.1-5.9l1.8-7.9h2.6L225.9,262.5z"/>
				<path class="st7" d="M156.9,303.3c-0.5-0.3-1.6-0.7-3-0.7c-2,0-2.8,1.2-2.8,2.2s0.9,2.1,3.1,3c2.7,1.2,4,2.6,4,4.9
					s-2.1,4.9-5.8,4.9s-3.2-0.5-4-1l0.6-2.1c0.9,0.5,2.2,1,3.6,1c2,0,3.1-1,3.1-2.5s-0.9-2.3-2.8-3.1c-2.5-1-4.2-2.5-4.2-4.8
					s2.1-4.6,5.4-4.6s2.8,0.4,3.5,0.8l-0.6,2.1L156.9,303.3z"/>
				<path class="st7" d="M170.6,302.9h-4.5v14.5h-2.5v-14.5h-4.5v-2.2h11.6v2.2H170.6z"/>
				<path class="st7" d="M184.6,317.4h-2.7l-1.5-4.9h-5.1l-1.4,4.9h-2.6l5.1-16.7h3.1L184.6,317.4z M180,310.6l-1.3-4.4
					c-0.3-1.1-0.6-2.3-0.8-3.3l0,0c-0.2,1-0.5,2.2-0.8,3.3l-1.3,4.4h4.3H180z"/>
				<path class="st7" d="M199,316.8c-0.9,0.4-2.8,0.9-4.8,0.9c-7.2,0-8.1-5.7-8.1-8.4c0-5.4,3.6-8.6,8.6-8.6s3.1,0.3,3.9,0.7
					l-0.6,2.1c-0.8-0.3-1.8-0.6-3.3-0.6c-3.4,0-5.9,2.2-5.9,6.4s2.3,6.4,5.6,6.4s1.9-0.2,2.2-0.3v-4.7h-2.9v-2h5.3v8.3L199,316.8z"
					/>
				<path class="st7" d="M211.1,317.4H202v-16.7h8.7v2.1h-6.2v4.8h5.9v2.1h-5.9v5.5h6.6v2.1V317.4z"/>
			</g>
		</g>
		<g>
			<circle class="st11" cx="440.1" cy="373.7" r="65.5"/>
			<g>
				<path class="st7" d="M404.3,346.4c1-0.2,2.3-0.3,4.1-0.3c1.8,0,3.6,0.4,4.6,1.3c0.9,0.8,1.5,2.1,1.5,3.6c0,4.1-3.2,5.5-6.2,5.5
					s-1,0-1.4-0.1v6.6h-2.5v-16.5L404.3,346.4z M406.8,354.3c0.4,0.1,0.8,0.1,1.4,0.1c2.3,0,3.7-1.2,3.7-3.3s-1.4-3.1-3.4-3.1
					s-1.4,0-1.7,0.2V354.3L406.8,354.3z"/>
				<path class="st7" d="M424.2,355c1.2,0.5,1.9,1.6,2.3,3.4c0.5,2.2,0.9,3.9,1.2,4.5h-2.6c-0.2-0.5-0.6-1.9-1-4
					c-0.5-2.2-1.3-3.1-3-3.1h-1.5v7.1h-2.5v-16.5c1.1-0.2,2.6-0.3,4.1-0.3c2.2,0,3.7,0.4,4.8,1.3c0.9,0.8,1.3,1.9,1.3,3.3
					c0,2.1-1.3,3.6-3,4.2l0,0L424.2,355z M421.2,353.9c2.1,0,3.4-1.2,3.4-3s-1.5-2.9-3.3-2.9s-1.5,0-1.8,0.2v5.7L421.2,353.9
					L421.2,353.9z"/>
				<path class="st7" d="M430,346.2h2.5v16.7H430V346.2z"/>
				<path class="st7" d="M443.8,348.8c-0.5-0.3-1.6-0.7-3-0.7c-2,0-2.8,1.2-2.8,2.2s0.9,2.1,3.1,3c2.7,1.2,4,2.6,4,4.9
					s-2.1,4.9-5.8,4.9c-3.7,0-3.2-0.5-4-1l0.6-2.1c0.9,0.5,2.2,1,3.6,1c2,0,3.1-1,3.1-2.5s-0.9-2.3-2.8-3.1c-2.5-1-4.2-2.5-4.2-4.8
					s2.1-4.6,5.4-4.6s2.8,0.4,3.5,0.8l-0.6,2.1L443.8,348.8z"/>
				<path class="st7" d="M463.8,362.9h-2.4l-0.4-7c-0.1-2.3-0.2-4.8-0.2-6.9l0,0c-0.5,2-1.2,4.1-1.9,6.2l-2.5,7.6h-1.9l-2.3-7.4
					c-0.7-2.2-1.3-4.4-1.7-6.4l0,0c0,2.1-0.2,4.7-0.3,7.1l-0.4,6.9h-2.4l1.1-16.7h3.1l2.4,7.4c0.6,2.1,1.1,3.9,1.5,5.7l0,0
					c0.4-1.8,0.9-3.7,1.6-5.8l2.4-7.3h3.2l1,16.7L463.8,362.9z"/>
				<path class="st7" d="M475.9,362.9h-9.1v-16.7h8.7v2.1h-6.2v4.8h5.9v2.1h-5.9v5.5h6.6v2.1V362.9z"/>
				<path class="st7" d="M416.8,387c-0.5-0.3-1.6-0.7-3-0.7c-2,0-2.8,1.2-2.8,2.2s0.9,2.1,3.1,3c2.7,1.2,4,2.6,4,4.9
					s-2.1,4.9-5.8,4.9c-3.7,0-3.2-0.5-4-1l0.6-2.1c0.9,0.5,2.2,1,3.6,1c2,0,3.1-1,3.1-2.5s-0.9-2.3-2.8-3.1c-2.5-1-4.2-2.5-4.2-4.8
					s2.1-4.6,5.4-4.6s2.8,0.4,3.5,0.8l-0.6,2.1L416.8,387z"/>
				<path class="st7" d="M430.7,386.6h-4.5v14.5h-2.5v-14.5h-4.5v-2.2h11.6L430.7,386.6L430.7,386.6z"/>
				<path class="st7" d="M444.7,401.1H442l-1.5-4.9h-5.1l-1.4,4.9h-2.6l5.1-16.7h3.1L444.7,401.1L444.7,401.1z M440.1,394.3
					l-1.3-4.4c-0.3-1.1-0.6-2.3-0.8-3.3l0,0c-0.2,1-0.5,2.2-0.8,3.3l-1.3,4.4h4.3H440.1z"/>
				<path class="st7" d="M459,400.4c-0.9,0.4-2.8,0.9-4.8,0.9c-7.2,0-8.1-5.7-8.1-8.4c0-5.4,3.6-8.6,8.6-8.6s3.1,0.3,3.9,0.7
					l-0.6,2.1c-0.8-0.3-1.8-0.6-3.3-0.6c-3.4,0-5.9,2.2-5.9,6.4s2.3,6.4,5.6,6.4s1.9-0.2,2.2-0.3v-4.7h-2.9v-2h5.3v8.3V400.4z"/>
				<path class="st7" d="M471.2,401.1h-9.1v-16.7h8.7v2.1h-6.2v4.8h5.9v2.1h-5.9v5.5h6.6v2.1V401.1z"/>
			</g>
		</g>
		<g>
			<g>
				<g>
					<path class="st12" d="M54.8,32.4c0,1.2-1,2.2-2.2,2.2H37.1c-1.2,0-2.2-1-2.2-2.2V16.9c0-1.2,1-2.2,2.2-2.2h15.5
						c1.2,0,2.2,1,2.2,2.2V32.4z"/>
					<g>
						<path class="st7" d="M48.3,17.2c-1.6,0-3,1.6-3,3.5s0.5,2.1,1.2,2.8c0.6,0.5,0.9,1,1,1.9v6c0,0.4,0.3,0.8,0.8,0.8l0,0
							c0.4,0,0.8-0.3,0.8-0.8v-6c0-0.9,0.4-1.3,1-1.9s1.2-1.6,1.2-2.8C51.3,18.8,50,17.2,48.3,17.2z"/>
						<path class="st7" d="M43,17.9v3.2c0,0.2-0.2,0.4-0.4,0.4h-0.1c-0.2,0-0.4-0.2-0.4-0.4v-3.2c0-0.5-0.4-0.7-0.7-0.7
							s-0.7,0.2-0.7,0.7v3.2c0,0.2-0.2,0.4-0.4,0.4l0,0c-0.2,0-0.4-0.2-0.4-0.4v-3.2c0-0.9-1.3-0.9-1.3,0v3c0,1.7,0.4,2.1,1.1,2.7
							c0.5,0.4,1,0.7,1,1.7v6c0,0.4,0.3,0.8,0.8,0.8l0,0c0.4,0,0.8-0.3,0.8-0.8v-6c0-1.1,0.5-1.3,1-1.7c0.7-0.5,1.1-1,1.1-2.7v-3
							C44.4,17,43.1,16.9,43,17.9L43,17.9z"/>
					</g>
				</g>
				<g>
					<path class="st7" d="M61.9,25c0.5,0.5,1,1.3,1.2,1.7l-0.7,0.4c0-0.1-0.1-0.3-0.2-0.4c-1,0.3-1.9,0.5-2.6,0.7c0,0,0,0.1-0.1,0.2
						l-0.4-0.9c0.2,0,0.4,0,0.7-0.1v-4.5h-0.2c-0.2,0-0.4-0.3-0.6-0.4c0.9-0.8,1.6-1.7,1.9-2.5l1,0.2c0,0,0,0.1-0.2,0.1
						c0.6,0.4,1.3,1,1.7,1.5l-0.6,0.6c-0.3-0.4-0.9-0.9-1.5-1.4c-0.3,0.5-0.7,1.1-1.2,1.6H61v-0.9h1c0,0.1,0,0.2-0.2,0.2v0.7H63V25
						h-2.3v1.5l1.2-0.3c-0.2-0.2-0.4-0.5-0.5-0.7l0.7-0.3L61.9,25z M62,22.2h-1.5v0.6H62V22.2z M60.5,24.1H62v-0.6h-1.5V24.1z
						 M65.8,21.5v1c0,0.8,0.3,3.3,2.2,4.6c-0.2,0.2-0.4,0.6-0.6,0.8c-1.4-1-1.9-2.8-2-3.6l0,0c-0.1,0.8-0.7,2.6-2.3,3.6
						c-0.1-0.2-0.4-0.6-0.5-0.8c2-1.3,2.3-3.7,2.3-4.6v-1h-0.4c-0.2,0.8-0.5,1.5-0.9,2c-0.2-0.1-0.5-0.4-0.7-0.5
						c0.6-0.9,1-2.4,1.2-4l1.1,0.2c0,0,0,0.1-0.2,0.1c0,0.5-0.2,0.9-0.3,1.4h3.1c0,0.3-0.2,1.9-0.6,2.9l-0.7-0.4
						c0.1-0.4,0.3-1.1,0.3-1.7H65.8z"/>
					<path class="st7" d="M75.6,25c0.2-0.1,0.4-0.3,0.5-0.4l0.8,0.6c0,0,0,0-0.2,0s0,0,0,0c-0.5,0.3-1.2,0.7-1.8,1.1
						c0.7,0.4,1.5,0.6,2.5,0.7c-0.2,0.2-0.4,0.5-0.5,0.8c-2.1-0.4-3.5-1.2-4.4-2.7h-1.2v1.7c0.7,0,1.5-0.1,2.2-0.2v0.7
						c-1.4,0.2-2.9,0.3-3.8,0.4c0,0,0,0.1-0.2,0.2l-0.3-1h1.2v-5c-0.4,0.3-0.9,0.5-1.3,0.7c-0.1-0.2-0.3-0.5-0.5-0.7
						c1.6-0.7,3.2-1.9,4-3h1.2c0,0.1,0,0.2-0.2,0.2c0.9,1.1,2.6,2.1,4,2.7c-0.2,0.2-0.4,0.5-0.6,0.8c-0.4-0.2-0.9-0.4-1.3-0.7
						L75.6,25L75.6,25z M73.4,21.8h2c-1-0.6-1.9-1.3-2.5-2c-0.5,0.7-1.4,1.4-2.4,2h1.9v-1.1h1.1c0,0.2,0,0.2-0.2,0.2v0.8L73.4,21.8z
						 M71.2,22.5v0.6h3.5v-0.6H71.2z M71.2,23.8v0.7h3.5v-0.7H71.2z M73.3,25.2c0.2,0.3,0.5,0.6,0.8,0.8c0.4-0.2,0.9-0.5,1.3-0.8
						C75.4,25.2,73.3,25.2,73.3,25.2z"/>
				</g>
			</g>
			<g>
				<g>
					<path class="st12" d="M54.8,68c0,1.2-1,2.2-2.2,2.2H37.1c-1.2,0-2.2-1-2.2-2.2V52.5c0-1.2,1-2.2,2.2-2.2h15.5
						c1.2,0,2.2,1,2.2,2.2V68z"/>
					<g>
						<path class="st7" d="M41,55.3c0.8,0,1.5-0.7,1.5-1.5s-0.7-1.5-1.5-1.5s-1.5,0.7-1.5,1.5S40.2,55.3,41,55.3z"/>
						<path class="st7" d="M42.3,56h-2.6c-0.8,0-1.5,0.7-1.5,1.5v5c0,0.4,0.3,0.7,0.7,0.7h0.5l0.3,4.3c0,0.4,0.3,0.7,0.7,0.7h1.5
							c0.4,0,0.7-0.3,0.7-0.7l0.3-4.3c0.5,0,0.4,0,0.4,0c0.4,0,0.7-0.3,0.7-0.7v-5c0-0.7-0.8-1.5-1.5-1.5H42.3z"/>
						<path class="st7" d="M48,55.3c0.8,0,1.5-0.7,1.5-1.5s-0.7-1.5-1.5-1.5s-1.5,0.7-1.5,1.5S47.2,55.3,48,55.3z"/>
						<path class="st7" d="M51.6,64L50,60.3l0.5-2.6c0-1-0.7-1.7-1.4-1.7h-2.2c-0.7,0-1.5,0.7-1.4,1.7l0.5,2.6L44.4,64
							c0,0.2,0,0.4,0,0.5s0.3,0.2,0.4,0.2h1.6l0.4,2.9c0,0.3,0.2,0.5,0.5,0.5h1c0.3,0,0.5-0.2,0.5-0.5l0.4-2.9h1.6
							c0.2,0,0.3,0,0.4-0.2c0-0.1,0.1-0.3,0-0.5H51.6z"/>
					</g>
				</g>
				<g>
					<path class="st7" d="M64.6,60.1c-0.9-0.5-2.2-1.1-3.1-1.5v4.6h-1v-8.3h1.3c0,0.2,0,0.3-0.3,0.3v2.7l0.2-0.3
						c1.1,0.4,2.5,1,3.5,1.5L64.6,60.1L64.6,60.1z"/>
					<path class="st7" d="M74,55.6c0,0-0.1,0-0.2,0s0,0,0,0c-0.7,0.7-1.7,1.5-2.6,2.2c0,0,0.2,0,0.3,0.1c0,0-0.1,0.1-0.2,0.2v5h-1
						v-4.7c-0.9,0.6-2.2,1.4-3.4,1.9c-0.1-0.2-0.4-0.6-0.6-0.7c2.5-1.1,5.4-3.1,6.9-4.8l1,0.7L74,55.6z"/>
					<path class="st7" d="M76.5,61.8c2.2-0.6,4.1-1.8,5.1-3.7c0.2,0.2,0.5,0.5,0.7,0.7c-1.3,2.1-3.4,3.4-6.2,4.1c0,0,0,0.2-0.2,0.2
						l-0.5-0.9V62c0.1,0,0.1-6.9,0.1-6.9h1.3c0,0.2,0,0.3-0.3,0.3v6.3V61.8z"/>
				</g>
			</g>
			<g>
				<g>
					<path class="st12" d="M133.1,32.4c0,1.2-1,2.2-2.2,2.2h-15.5c-1.2,0-2.2-1-2.2-2.2V16.9c0-1.2,1-2.2,2.2-2.2h15.5
						c1.2,0,2.2,1,2.2,2.2V32.4z"/>
					<path class="st7" d="M128.2,26.2l-0.7-1.9v7H119v-7l-0.7,1.9l-2.9-1l1.4-4l0,0c0.5-1.5,1.7-2.8,4.2-3.1c0,1.2,1,2.2,2.3,2.2
						c1.2,0,2.2-1,2.3-2.2c2.6,0.3,3.8,1.6,4.2,3.1l0,0l1.4,4l-2.9,1H128.2z"/>
				</g>
				<g>
					<path class="st7" d="M144.3,21.3c0,0-0.1,0.1-0.2,0.2c-1.1,3.2-2.6,5-5.1,6.3c-0.2-0.2-0.4-0.5-0.7-0.7
						c2.3-1.1,3.8-2.8,4.6-5.2h-3c-0.5,0.8-1.2,1.6-2,2.2c-0.2-0.2-0.5-0.4-0.8-0.6c1.3-0.9,2.4-2.5,3-4.1l1.2,0.3
						c0,0.1-0.2,0.2-0.3,0.2c-0.2,0.4-0.4,0.8-0.6,1.2h3.1l0.8,0.4V21.3z M143,19c0.4,0.3,0.9,0.9,1.2,1.3l-0.5,0.4
						c-0.3-0.4-0.8-1-1.2-1.3l0.4-0.4H143z M144.4,18.7c0.4,0.3,0.9,0.9,1.2,1.3l-0.5,0.4c-0.2-0.4-0.8-0.9-1.2-1.3l0.4-0.4H144.4z"
						/>
					<path class="st7" d="M146.8,21.8c0.3,0.6,0.6,1.5,0.7,2l-0.7,0.2c-0.1-0.6-0.4-1.4-0.7-2L146.8,21.8z M152.4,22
						c0,0-0.1,0.1-0.2,0.1c-0.8,2.8-2.2,4.5-4.4,5.4c-0.1-0.2-0.4-0.5-0.5-0.6c2.1-0.8,3.5-2.4,4.2-5.2l1,0.3H152.4z M149.1,21.4
						c0.2,0.6,0.4,1.5,0.4,2.1l-0.8,0.2c0-0.6-0.3-1.5-0.5-2.1l0.8-0.2H149.1z"/>
					<path class="st7" d="M159.6,20.6c0,0,0,0-0.1,0c-0.4,0.9-1,2.1-1.7,3.1c1,0.8,2.5,2.1,3.4,3.1l-0.9,0.7c-0.8-0.9-2.2-2.3-3.1-3
						c-0.9,1-2.2,2.3-3.5,3c-0.2-0.2-0.5-0.5-0.7-0.7c2.5-1.4,4.4-3.7,5.2-5.8h-4.4v-0.9h4.9h0.2L159.6,20.6L159.6,20.6z
						 M159.7,19.2c0.4,0.4,0.8,1,1,1.4l-0.5,0.3c-0.2-0.4-0.6-1-1-1.4L159.7,19.2z M160.8,18.8c0.4,0.3,0.8,1,1,1.4l-0.5,0.3
						c-0.2-0.4-0.7-1-1-1.4L160.8,18.8z"/>
					<path class="st7" d="M164,25.9c0,0-0.1,0.1-0.2,0c-0.2,0.7-0.7,1.4-1.1,1.9c-0.2-0.1-0.5-0.4-0.7-0.5c0.4-0.4,0.8-1.1,1-1.8
						l1,0.3V25.9z M165.5,19.4v6.1h-3v-6.1H165.5z M164.7,21.2v-1.1h-1.3v1.1H164.7z M164.7,23v-1.1h-1.3V23H164.7z M164.7,24.7
						v-1.1h-1.3v1.1H164.7z M170.1,21.9h0.5c0,0.2,0,0.2,0,0.3c-0.2,1.6-0.6,2.8-1.2,3.7c0.5,0.5,1,0.9,1.7,1.2
						c-0.2,0.2-0.5,0.5-0.6,0.7c-0.6-0.3-1.2-0.7-1.7-1.3c-0.5,0.5-1.1,1-1.7,1.3c-0.1-0.2-0.3-0.6-0.5-0.7c0.6-0.3,1.2-0.7,1.7-1.3
						c-0.5-0.8-0.9-1.7-1.1-2.8l0.7-0.2c0.2,0.8,0.5,1.6,0.9,2.3c0.4-0.7,0.7-1.5,0.8-2.5h-2.5c0,1.2,0,3.7-1,5.2
						c-0.2-0.2-0.5-0.4-0.7-0.5c0.1-0.2,0.2-0.4,0.3-0.6l-0.7,0.4c-0.1-0.4-0.4-0.9-0.7-1.3l0.7-0.3c0.3,0.4,0.6,0.9,0.7,1.2
						c0.5-1.2,0.6-2.7,0.6-3.8v-3.6h4.6v0.8h-3.8v1.7L170.1,21.9L170.1,21.9z"/>
					<path class="st7" d="M175.4,24.3c0,0,0,0.1-0.2,0.2c-0.2,1.7-0.6,2.8-3,3.5c0-0.2-0.3-0.6-0.5-0.8c2.2-0.5,2.5-1.4,2.6-3
						L175.4,24.3L175.4,24.3z M175.5,21.6v-0.8h-3.7V20h3.7v-0.9h1.2c0,0.2,0,0.2-0.2,0.2V20h3.8v0.8h-3.8v0.8h2.9v0.8h-6.6v-0.8
						L175.5,21.6L175.5,21.6z M180,24.9h-0.9v-1.1h-6.2v1.1H172V23h8L180,24.9L180,24.9z M177.6,26.6c0,0.3,0,0.3,0.4,0.3h1.1
						c0.3,0,0.4-0.2,0.4-1.2c0.2,0.1,0.6,0.3,0.8,0.3c0,1.3-0.3,1.7-1.2,1.7h-1.3c-1,0-1.2-0.3-1.2-1.1v-2.4h1.1
						c0,0.1,0,0.2-0.2,0.2L177.6,26.6L177.6,26.6z"/>
				</g>
			</g>
			<g>
				<g>
					<path class="st12" d="M133.1,68c0,1.2-1,2.2-2.2,2.2h-15.5c-1.2,0-2.2-1-2.2-2.2V52.5c0-1.2,1-2.2,2.2-2.2h15.5
						c1.2,0,2.2,1,2.2,2.2V68z"/>
					<g>
						<path class="st7" d="M121.9,57.4c0.2,0.4,0.6,0.6,1,0.7c0.4,0.1,0.9,0.2,1.4,0.2h0.7c0.3,0,0.5,0,0.6,0c0,0,0.1,0,0.2,0l0,0
							c0,0,0,0.1,0,0.2c0,0.1,0,0.3,0,0.5c0,0.4,0,0.9,0.2,1.4c0,0.2,0.2,0.5,0.5,0.6c0.2,0.2,0.5,0.2,0.9,0.2c0.2,0,0.4,0,0.6,0
							h0.1c0,0,0,0.1,0,0.3v0.6h0.8v-0.6c0-0.2,0-0.3,0-0.5c0-0.1,0-0.2-0.2-0.3c0,0-0.2-0.1-0.3-0.1s-0.3,0-0.4,0s-0.3,0-0.5,0
							s-0.4,0-0.5-0.1c0,0-0.1-0.1-0.2-0.2c0-0.1-0.1-0.3-0.1-0.5s0-0.5,0-0.7s0-0.4,0-0.6c0-0.1,0-0.3-0.1-0.4
							c0-0.1-0.1-0.2-0.2-0.3c-0.2-0.1-0.3-0.2-0.5-0.3c-0.2,0-0.3,0-0.5,0l0,0h-0.9c-0.4,0-0.8,0-1.1-0.1c-0.2,0-0.4-0.1-0.5-0.2
							c-0.2-0.2-0.3-0.4-0.5-0.7c-0.1-0.4-0.2-0.8-0.2-1.5v-1.3h-0.8v1.4c0,0.6,0,1.1,0.2,1.5C121.6,56.9,121.8,57.2,121.9,57.4
							L121.9,57.4z"/>
						<path class="st7" d="M130.6,59.7c0-0.2-0.1-0.4-0.3-0.6c-0.1,0-0.2-0.2-0.4-0.2c-0.1,0-0.3,0-0.5,0c-0.1,0-0.2,0-0.2,0l0,0
							l0,0c0,0,0-0.1,0-0.3c0-0.1,0-0.5,0-0.5s0-0.5,0-0.8s0-0.3,0-0.5c0-0.3,0-0.5-0.1-0.8s-0.4-0.6-0.7-0.8s-0.7-0.3-1.1-0.3
							s0,0,0,0l0,0c-0.2,0-0.3,0-0.4,0c0,0-0.1,0-0.1-0.1c0,0,0-0.2-0.1-0.4c0-0.2,0-0.4,0-0.5c0,0,0,0,0-0.2h-0.8c0,0,0,0.1,0,0.2
							c0,0.4,0,0.8,0.2,1.2c0,0.2,0.3,0.4,0.5,0.5s0.5,0.2,0.8,0.2h0.2c0.2,0,0.4,0,0.5,0c0.2,0,0.3,0.2,0.4,0.3
							c0,0.1,0.2,0.4,0.2,0.7c0,0.2,0,0.3,0,0.4c0,0.3,0,0.5,0,0.7s0,0.3,0,0.5c0,0.1,0,0.3,0,0.4c0,0,0,0.2,0,0.3
							c0,0,0,0.1,0.2,0.2c0.1,0,0.2,0.1,0.3,0.2c0.1,0,0.2,0,0.4,0c0.1,0,0.2,0,0.3,0l0,0c0,0,0,0,0,0.2c0,0,0,0.2,0,0.3v2.3h0.8V60
							C130.7,59.9,130.7,59.8,130.6,59.7L130.6,59.7z"/>
						<rect x="115.8" y="63.9" class="st7" width="4.6" height="2.9"/>
						<rect x="121.5" y="63.9" class="st7" width="8.9" height="2.9"/>
					</g>
				</g>
				<g>
					<path class="st7" d="M139.9,60.8h-1.6v0.8h-0.7v-6h2.3V60.8z M139.2,56.4h-0.9V60h0.9V56.4z M146.1,61h-2.4
						c0.4,1,1.3,1.5,2.6,1.7c-0.2,0.2-0.4,0.5-0.5,0.8c-1.4-0.3-2.2-0.9-2.7-2c-0.4,0.9-1.2,1.6-3,2c0-0.2-0.3-0.6-0.5-0.7
						c1.7-0.3,2.4-0.9,2.7-1.8h-2.2v-0.8h2.4c0-0.3,0-0.6,0-0.9h0.1c-0.1-0.1-0.2-0.3-0.4-0.4l0,0l0,0c-0.7,0.1-1.5,0.3-2,0.4
						c0,0,0,0.1-0.1,0.1l-0.3-0.8l1.2-0.2v-0.9h-0.9v-0.7h0.9v-0.7h-1v-0.7h1v-0.8h1c0,0.1,0,0.2-0.2,0.2v0.6h0.9v0.7h-0.9v0.7h0.8
						v0.7h-0.8v0.8h0.9c0-0.1,0,0.2,0,0.2c0.6-0.6,0.7-1.4,0.8-2.5h-0.7v-0.7h3c0,0,0,0.2,0,0.3c0,2.4-0.1,3.2-0.4,3.5
						c-0.2,0.3-0.5,0.3-1.3,0.3c0-0.2,0-0.5-0.2-0.7c0.3,0,0.5,0,0.6,0s0.1,0,0.2-0.1c0.1-0.2,0.2-0.8,0.2-2.6h-0.8
						c0,1.5-0.3,2.7-1.4,3.4h0.6c0,0.1,0,0.2-0.2,0.2c0,0.2,0,0.4,0,0.6h2.7V61L146.1,61z"/>
					<path class="st7" d="M153.3,62.5h2.4v0.8h-5.9v-0.8h2.6v-1.2h-1.9v-0.8h1.9v-1h-2v-2.8l0,0c-0.2,0.5-0.5,1.3-0.8,1.8l-0.5-0.3
						c0,0.6,0,1.2-0.1,1.8c0.4,0.4,1.2,1.4,1.4,1.7l-0.6,0.6c-0.2-0.3-0.6-0.9-1-1.4c-0.2,0.9-0.7,1.8-1.4,2.5
						c-0.1-0.2-0.4-0.5-0.6-0.6c1.3-1.4,1.5-3.2,1.5-5v-3.3h1c0,0.1,0,0.2-0.2,0.2V58c0.2-0.5,0.5-1.4,0.7-1.9l0.9,0.4l0,0h1.2v-0.9
						h-1.6v-0.8h5.5v0.8h-1.7v0.9h1.4v2.9h-1.9c0,0,0,0-0.2,0.1v0.9h2v0.8h-2L153.3,62.5L153.3,62.5z M146.8,58.9
						c0.3-0.5,0.5-1.5,0.5-2.3h0.6c0,1-0.1,2-0.5,2.6L146.8,58.9z M151.3,57.3v1.3h0.7v-1.3H151.3z M152.6,55.7v0.9h0.7v-0.9H152.6z
						 M153.3,57.3h-0.7v1.3h0.7V57.3z M154.6,58.7v-1.3h-0.7v1.3H154.6z"/>
					<path class="st7" d="M160.4,59.9h-2.7c0,1.2-0.2,2.6-0.9,3.6c-0.1-0.2-0.5-0.4-0.7-0.6c0.7-1,0.7-2.5,0.7-3.6v-2.5h3.6
						L160.4,59.9L160.4,59.9z M160.7,55.1v0.8h-4.3v-0.8H160.7z M159.6,57.6h-1.9v1.5h1.9V57.6z M165.3,57.9v0.9h-1v4.8h-0.9v-4.8
						H162c0,1.5-0.4,3.4-1.7,4.7c-0.1-0.2-0.4-0.5-0.7-0.6c1.3-1.4,1.5-3.3,1.5-4.7v-2.6h0.6c1-0.1,2-0.5,2.7-0.9l0.8,0.7
						c0,0,0,0-0.2,0c-0.7,0.4-1.9,0.7-3,1v1.4L165.3,57.9L165.3,57.9z"/>
				</g>
			</g>
			<g>
				<g>
					<path class="st12" d="M211.4,32.4c0,1.2-1,2.2-2.2,2.2h-15.5c-1.2,0-2.2-1-2.2-2.2V16.9c0-1.2,1-2.2,2.2-2.2h15.5
						c1.2,0,2.2,1,2.2,2.2V32.4z"/>
					<g>
						<path class="st7" d="M199,16.4h5.1c0.2,0,0.4,0.2,0.4,0.4V17c0,0.2-0.2,0.4-0.4,0.4H199c-0.2,0-0.4-0.2-0.4-0.4v-0.2
							C198.6,16.6,198.8,16.4,199,16.4z"/>
						<path class="st7" d="M204.6,19.6h-1.1v-2.2h-0.7v2.2h-2.3v-2.2h-0.7v2.2h-1.1c-1.3,0-2.3,1-2.3,2.3V30c0,1.1,0.8,2.1,1.9,2.2
							v0.4c0,0.2,0.1,0.3,0.3,0.3h0.2c0.2,0,0.3-0.1,0.3-0.3v-0.3h5.2v0.3c0,0.2,0.1,0.3,0.3,0.3h0.2c0.2,0,0.3-0.1,0.3-0.3v-0.4
							c1.1-0.2,1.9-1.1,1.9-2.2v-8.1C207,20.6,206,19.6,204.6,19.6L204.6,19.6z M206,30c0,0.4-0.2,0.7-0.4,1
							c-0.2,0.2-0.5,0.4-0.8,0.4c0,0,0,0-0.1,0h-0.2c0,0,0,0-0.1,0h-5.6c0,0,0,0-0.1,0h-0.2c0,0,0,0-0.1,0c-0.3,0-0.6-0.2-0.8-0.4
							c-0.3-0.3-0.4-0.6-0.4-1v-8.1c0-0.4,0.2-0.7,0.4-1c0.3-0.3,0.6-0.4,1-0.4h6.1c0.4,0,0.7,0.2,1,0.4c0.3,0.3,0.4,0.6,0.4,1
							L206,30L206,30z"/>
						<path class="st7" d="M198.5,22.9v6.6c0,0.1,0,0.2,0.2,0.3s0.3,0,0.3-0.2v-6.7c0-0.1-0.1-0.3-0.3-0.2S198.5,22.8,198.5,22.9
							L198.5,22.9z"/>
						<path class="st7" d="M200.3,22.9v6.6c0,0.1,0,0.2,0.2,0.3s0.3,0,0.3-0.2v-6.7c0-0.1-0.1-0.3-0.3-0.2S200.3,22.8,200.3,22.9
							L200.3,22.9z"/>
						<path class="st7" d="M202.2,22.9v6.6c0,0.1,0,0.2,0.2,0.3s0.3,0,0.3-0.2v-6.7c0-0.1-0.1-0.3-0.3-0.2S202.2,22.8,202.2,22.9
							L202.2,22.9z"/>
						<path class="st7" d="M204.1,22.9v6.6c0,0.1,0,0.2,0.2,0.3s0.3,0,0.3-0.2v-6.7c0-0.1-0.1-0.3-0.3-0.2S204.1,22.8,204.1,22.9
							L204.1,22.9z"/>
					</g>
				</g>
				<g>
					<path class="st7" d="M222.7,21.2c0,0-0.1,0.1-0.2,0.2c-1,3.1-2.6,5-5.2,6.3c-0.2-0.2-0.4-0.5-0.7-0.7c2.4-1.2,3.9-2.9,4.6-5.2
						h-3.1c-0.5,0.8-1.3,1.6-2.1,2.3c-0.2-0.2-0.5-0.5-0.8-0.6c1.3-1,2.4-2.4,3-4.1l1.2,0.3c0,0-0.2,0.1-0.3,0.1
						c-0.2,0.4-0.4,0.7-0.6,1.1h3.2l0.8,0.4L222.7,21.2z"/>
					<path class="st7" d="M230.7,20.6v6.3h-1v-0.6h-4.8v0.6H224v-6.4L230.7,20.6L230.7,20.6z M229.8,25.4v-4H225v4H229.8z"/>
					<path class="st7" d="M232.4,22.8h7.9v0.9h-7.5c0,0-0.2,0.2-0.3,0.2L232.4,22.8L232.4,22.8z"/>
					<path class="st7" d="M248.4,21.2c0,0-0.1,0.1-0.2,0.2c-1,3.1-2.6,5-5.2,6.3c-0.2-0.2-0.4-0.5-0.7-0.7c2.4-1.2,3.9-2.9,4.6-5.2
						h-3.1c-0.5,0.8-1.3,1.6-2.1,2.3c-0.2-0.2-0.5-0.5-0.8-0.6c1.3-1,2.4-2.4,3-4.1l1.2,0.3c0,0-0.2,0.1-0.3,0.1
						c-0.2,0.4-0.4,0.7-0.6,1.1h3.2l0.8,0.4L248.4,21.2z"/>
				</g>
			</g>
			<g>
				<g>
					<path class="st12" d="M211.4,68c0,1.2-1,2.2-2.2,2.2h-15.5c-1.2,0-2.2-1-2.2-2.2V52.5c0-1.2,1-2.2,2.2-2.2h15.5
						c1.2,0,2.2,1,2.2,2.2V68z"/>
					<g>
						<path class="st7" d="M209.3,56.8c-0.2-0.5-0.5-0.9-0.9-1.1c-0.4-0.3-0.9-0.4-1.5-0.4h-2.2v-0.6c0-0.3,0-0.6-0.2-0.9
							c-0.2-0.4-0.5-0.8-0.8-1c-0.4-0.2-0.8-0.4-1.3-0.4h-1.8c-0.3,0-0.6,0-0.9,0.2c-0.4,0.2-0.8,0.5-1,0.8
							c-0.2,0.4-0.4,0.8-0.4,1.3v0.6h-2.2c-0.4,0-0.7,0-1,0.2c-0.5,0.2-0.9,0.5-1.1,0.9c-0.3,0.4-0.4,0.9-0.4,1.5v7.8
							c0,0.4,0,0.7,0.2,1c0.2,0.5,0.5,0.9,0.9,1.1c0.4,0.3,0.9,0.4,1.5,0.4H207c0.4,0,0.7,0,1-0.2c0.5-0.2,0.9-0.5,1.1-0.9
							c0.3-0.4,0.4-0.9,0.4-1.5v-7.8C209.5,57.4,209.5,57.1,209.3,56.8L209.3,56.8z M199.5,54.6c0-0.2,0-0.3,0-0.4
							c0-0.2,0.2-0.4,0.4-0.5s0.4-0.2,0.6-0.2h1.8c0.2,0,0.3,0,0.4,0c0.2,0,0.4,0.2,0.5,0.4s0.2,0.4,0.2,0.6v0.6h-4.1v-0.6
							L199.5,54.6z M208.4,65.6c0,0.2,0,0.4-0.1,0.6c-0.1,0.3-0.3,0.5-0.5,0.6c-0.2,0.2-0.5,0.2-0.8,0.2h-10.8c-0.2,0-0.4,0-0.6-0.1
							c-0.3-0.1-0.5-0.3-0.6-0.5c-0.2-0.2-0.2-0.5-0.2-0.8v-5.9h13.7L208.4,65.6L208.4,65.6L208.4,65.6z M208.4,58.7h-13.7v-0.9
							c0-0.2,0-0.4,0.1-0.6c0.1-0.3,0.3-0.5,0.5-0.6c0.2-0.2,0.5-0.2,0.8-0.2h10.8c0.2,0,0.4,0,0.6,0.1c0.3,0.1,0.5,0.3,0.6,0.5
							c0.2,0.2,0.2,0.5,0.2,0.8L208.4,58.7L208.4,58.7L208.4,58.7z"/>
						<polygon class="st7" points="200.7,65.9 202.5,65.9 202.5,64.2 204.2,64.2 204.2,62.4 202.5,62.4 202.5,60.7 200.7,60.7 
							200.7,62.4 199,62.4 199,64.2 200.7,64.2 						"/>
					</g>
				</g>
				<g>
					<path class="st7" d="M217.9,59.8c0.6,0.5,1.4,1.1,1.7,1.6L219,62c-0.3-0.4-0.8-0.9-1.3-1.3v1.8c0,0.8-0.3,1-1.8,1
						c0-0.2-0.2-0.6-0.3-0.8c0.2,0,0.4,0,0.6,0c0.6,0,0.6,0,0.6-0.2v-1.8c-0.6,0.4-1.2,0.9-1.6,1.2v0.2l-0.5-0.8
						c0.5-0.3,1.2-0.8,1.9-1.3l0.2,0.6v-3.5h-2v-0.8h2v-1.6h1.1c0,0.1,0,0.2-0.2,0.2v1.4h1.9v0.8h-1.9V60h0.1L217.9,59.8z
						 M215.8,59.6c-0.1-0.4-0.4-1.1-0.7-1.7l0.7-0.3c0.3,0.5,0.7,1.2,0.8,1.6l-0.7,0.3L215.8,59.6z M219.6,57.9c0,0-0.1,0-0.2,0
						c-0.2,0.5-0.6,1.1-0.9,1.5l-0.6-0.3c0.3-0.5,0.6-1.2,0.8-1.7L219.6,57.9L219.6,57.9z M218.7,54.6c0.4,0.3,0.8,0.8,1,1.1
						l-0.7,0.4c-0.2-0.3-0.6-0.8-1-1.1L218.7,54.6L218.7,54.6z M223.7,57.3h-0.5c-0.2,1.4-0.6,2.7-1.1,3.7c0.5,0.8,1,1.4,1.8,1.8
						c-0.2,0.2-0.5,0.5-0.6,0.8c-0.7-0.4-1.2-1-1.6-1.7c-0.5,0.7-1.2,1.3-2,1.7c-0.1-0.2-0.4-0.6-0.5-0.7c0.9-0.4,1.6-1.1,2.1-1.9
						c-0.3-0.7-0.6-1.4-0.8-2.2c-0.2,0.3-0.3,0.6-0.5,0.9c-0.1-0.2-0.4-0.5-0.6-0.6c0.7-0.9,1.1-2.6,1.3-4.3l1.1,0.2
						c0,0,0,0.1-0.2,0.1c0,0.5-0.2,1-0.3,1.5h2.6v0.8L223.7,57.3z M220.9,57.3L220.9,57.3c0.2,1.1,0.4,1.9,0.8,2.7
						c0.3-0.8,0.6-1.7,0.7-2.7H220.9z"/>
					<path class="st7" d="M227.4,56.2v0.7h-3.1v-0.7H227.4z M227.2,60.1v2.8h-1.8v0.4h-0.7V60L227.2,60.1L227.2,60.1z M224.7,58.2
						v-0.7h2.5v0.7H224.7z M224.7,59.5v-0.7h2.5v0.7H224.7z M227.1,54.9v0.7h-2.4v-0.7H227.1z M226.4,60.8h-1.1v1.4h1.1V60.8z
						 M228.2,60.2v-2.1c-0.2,0.2-0.3,0.4-0.5,0.5c-0.1-0.2-0.4-0.4-0.5-0.6c0.5-0.4,1.1-1.2,1.4-1.9h0.3c0,0.1,0-0.3,0-0.3h-1.3
						v-0.7h1.3v-0.6h1c0,0.1,0,0.2-0.2,0.2v0.4h1.3v-0.6h1c0,0.1,0,0.2-0.2,0.2v0.4h1.3v0.7h-1.3v0.5h-0.7h0.2c0,0.1,0,0.2-0.2,0.2
						c0,0.1-0.2,0.3-0.3,0.4h2v0.6h-1.9v0.4h1.7v0.5h-1.7v0.4h1.7v0.5h-1.7v0.4h2.2v0.6h-4.9L228.2,60.2z M227.8,60.5h4.4
						c0.1,0,0.1,0,0.1,0s0,0,0.6,0.3c0,0,0,0-0.1,0.1c-0.4,0.6-0.9,1.1-1.5,1.5c0.6,0.2,1.3,0.4,2,0.4c-0.2,0.2-0.4,0.5-0.5,0.7
						c-0.9-0.1-1.7-0.4-2.4-0.7c-0.8,0.3-1.8,0.6-2.7,0.7c0-0.2-0.2-0.5-0.4-0.7c0.8,0,1.6-0.2,2.3-0.5c-0.4-0.3-0.8-0.6-1.1-0.9
						l0.5-0.2h-1.2L227.8,60.5L227.8,60.5z M230.2,57.8v-0.4h-1.1v0.4H230.2z M230.2,58.7v-0.4h-1.1v0.4H230.2z M230.2,59.6v-0.4
						h-1.1v0.4H230.2z M229.7,56.3h-0.4h0.2c0,0.1,0,0.2-0.2,0.2c0,0.1-0.1,0.3-0.2,0.4h1c0.1-0.2,0.3-0.5,0.3-0.7l0.6,0.2v-0.5
						h-1.3v0.5L229.7,56.3z M229.3,61.2c0.3,0.3,0.7,0.6,1.1,0.8c0.4-0.2,0.8-0.5,1.1-0.8H229.3L229.3,61.2z"/>
				</g>
			</g>
			<g>
				<g>
					<path class="st12" d="M289.7,32.4c0,1.2-1,2.2-2.2,2.2H272c-1.2,0-2.2-1-2.2-2.2V16.9c0-1.2,1-2.2,2.2-2.2h15.5
						c1.2,0,2.2,1,2.2,2.2V32.4z"/>
					<g>
						<path class="st7" d="M274.4,31.4c0,0.9,0.8,1.5,1.7,1.5h7.5c0.9,0,1.6-0.7,1.7-1.5l0.8-10.9h-12.6l0.8,10.9L274.4,31.4z
							 M285.2,21.4l-0.8,10c0,0.4-0.4,0.8-0.8,0.8h-7.5c-0.4,0-0.8-0.3-0.8-0.8l-0.8-10L285.2,21.4L285.2,21.4z"/>
						<path class="st7" d="M277.4,30.5c0.2,0,0.3-0.2,0.3-0.4l-0.3-6.6c0-0.2-0.2-0.3-0.4-0.3s-0.3,0.2-0.3,0.4l0.3,6.6
							C277,30.4,277.2,30.5,277.4,30.5z"/>
						<path class="st7" d="M280.2,30.1v-6.6c0-0.2-0.1-0.3-0.3-0.4s-0.4,0.1-0.4,0.3V30c0,0.2,0.2,0.4,0.4,0.3s0.3-0.2,0.3-0.4V30.1
							z"/>
						<path class="st7" d="M282.2,30.5c0.2,0,0.4-0.1,0.4-0.3l0.3-6.6c0-0.2-0.1-0.4-0.3-0.4s-0.4,0.1-0.4,0.3l-0.3,6.6
							C281.9,30.3,282,30.5,282.2,30.5z"/>
						<path class="st7" d="M285.8,18.4c0,0-1.1-0.2-1.4-0.3c-0.3,0-2.6-0.4-2.6-0.4v-0.6c-0.1-0.4-0.5-0.8-0.9-0.8h-2
							c-0.4,0-0.8,0.3-0.8,0.8v0.6c0,0-2.4,0.4-2.7,0.4c-0.3,0-1.4,0.3-1.4,0.3c-0.3,0-0.6,0.4-0.6,0.8v0.7h13v-0.7
							C286.4,18.8,286.2,18.5,285.8,18.4z M280.5,17.6h-1.3c-0.1,0-0.2,0-0.2-0.2s0-0.2,0.2-0.2h1.3c0.1,0,0.2,0,0.2,0.2
							S280.7,17.6,280.5,17.6z"/>
					</g>
				</g>
				<g>
					<path class="st7" d="M300.7,20.8v6.4h-1v-0.5H294v-0.9h5.7v-4.1h-5.6v-0.9H300.7z M299.6,19c0.4,0.3,0.9,0.9,1.2,1.3l-0.5,0.4
						c-0.3-0.4-0.8-1-1.2-1.3l0.4-0.4H299.6z M301,18.7c0.4,0.3,0.9,0.9,1.2,1.3l-0.5,0.4c-0.3-0.4-0.8-1-1.2-1.3l0.4-0.4H301z"/>
					<path class="st7" d="M302.9,25.2c2,0.2,4.4,0.8,6,1.3l-0.4,1c-1.4-0.6-3.9-1.2-5.9-1.4l0.4-0.9H302.9z M303.6,19.5
						c1.6,0.2,3.7,0.6,5,1l-0.4,0.9c-1.3-0.5-3.3-0.9-4.9-1.1l0.3-0.9V19.5z M303.6,22.4c1.5,0.1,3.4,0.5,4.6,0.9l-0.3,0.9
						c-1.1-0.4-3-0.8-4.6-1l0.3-0.9V22.4z"/>
					<path class="st7" d="M316.6,20.3c0,0,0,0.1-0.2,0.1c-0.5,1.2-1.1,2.2-1.8,3.2c1,0.8,2.5,2.1,3.3,3.1l-0.8,0.7
						c-0.8-0.9-2.2-2.3-3.1-3c-0.9,1-2.2,2.3-3.5,3c-0.2-0.2-0.5-0.5-0.7-0.7c2.5-1.3,4.5-3.8,5.3-5.8h-4.5V20h5.2l0.8,0.4
						L316.6,20.3z"/>
					<path class="st7" d="M326.4,23.2h-3.1h0.2c0,0.1,0,0.2-0.2,0.2c-0.2,1.7-0.9,3.2-2.9,4.2c-0.2-0.2-0.5-0.5-0.7-0.6
						c1.9-0.9,2.4-2.2,2.6-3.7h-3.5v-0.9h7.6v0.9V23.2z M325.5,20.5h-5.8v-0.9h5.8V20.5z"/>
					<path class="st7" d="M327.6,22.8h7.9v0.9H328c0,0-0.2,0.2-0.3,0.2v-1.1H327.6z"/>
					<path class="st7" d="M337,22c0.9,0.2,1.9,0.6,2.5,0.9l-0.4,0.8c-0.6-0.3-1.7-0.7-2.5-0.9L337,22z M337.4,26.5
						c3-1,5.1-2.6,6.4-5.4c0.2,0.2,0.6,0.5,0.8,0.6c-1.3,2.8-3.5,4.5-6.4,5.5c0,0,0,0.2-0.1,0.2L337.4,26.5L337.4,26.5z M338.1,19.6
						c0.9,0.2,1.8,0.6,2.5,0.9l-0.4,0.8c-0.7-0.4-1.6-0.7-2.5-1l0.4-0.8V19.6z"/>
					<path class="st7" d="M350.5,21.7v5.8h-0.8v-0.4h-4.1v-0.7h4.1v-1.7h-3.8V24h3.8v-1.6h-3.9v-0.7L350.5,21.7L350.5,21.7z"/>
					<path class="st7" d="M352.6,20c1,0.3,2.1,0.8,2.8,1.3l-0.5,0.9c-0.7-0.5-1.8-1-2.8-1.3l0.4-0.8L352.6,20z M352.4,26.5
						c3.3-1,5.5-2.9,6.6-5.5c0.3,0.2,0.6,0.4,0.9,0.6c-1.2,2.6-3.5,4.6-6.7,5.7c0,0,0,0.2-0.2,0.2l-0.7-1H352.4z"/>
				</g>
			</g>
			<g>
				<g>
					<path class="st12" d="M289.7,68c0,1.2-1,2.2-2.2,2.2H272c-1.2,0-2.2-1-2.2-2.2V52.5c0-1.2,1-2.2,2.2-2.2h15.5
						c1.2,0,2.2,1,2.2,2.2V68z"/>
					<g>
						<path class="st7" d="M288.1,57.7c0-1.3-1.1-2.4-2.4-2.4h-12.3c-0.4,0-0.8,0.3-0.9,0.6l-0.9,2.8c0,0.3-0.1,0.6-0.1,0.8v4h2.8
							c0,0.9,0.8,1.6,1.7,1.6s1.6-0.7,1.7-1.6h4.5c0,0.9,0.8,1.6,1.7,1.6s1.6-0.7,1.7-1.6h2.6v-5.9L288.1,57.7z M276.7,63.6
							c0,0.3-0.4,0.6-0.7,0.6s-0.7-0.3-0.7-0.6c0,0,0,0,0-0.1s0-0.2,0-0.3c0.1-0.2,0.4-0.4,0.6-0.4s0.5,0.2,0.6,0.4c0,0,0,0.2,0,0.3
							c0,0,0,0,0,0.1H276.7z M284.5,63.6c0,0.3-0.4,0.6-0.7,0.6s-0.7-0.3-0.7-0.6c0,0,0,0,0-0.1s0-0.2,0-0.3
							c0.1-0.2,0.4-0.4,0.6-0.4s0.5,0.2,0.6,0.4c0,0,0,0.2,0,0.3c0,0,0,0,0,0.1H284.5z M287.7,63.2h-2.2c-0.1-0.8-0.8-1.4-1.6-1.4
							s-1.5,0.6-1.6,1.4h-4.6c-0.1-0.8-0.8-1.4-1.6-1.4s-1.5,0.6-1.6,1.4h-2.4v-3.6c0-0.2,0-0.5,0.1-0.7l0.9-2.8
							c0-0.2,0.3-0.4,0.5-0.4h12.3c0.5,0,1,0.2,1.4,0.6c0.4,0.4,0.6,0.8,0.6,1.4v5.5l0,0H287.7z"/>
						<path class="st7" d="M285.5,56.6h-1.3c-0.1,0-0.2,0.1-0.2,0.2v2.1c0,0.1,0.1,0.2,0.2,0.2h2.2c0.1,0,0.2-0.1,0.2-0.2v-1.1
							C286.6,57.2,286.1,56.6,285.5,56.6L285.5,56.6z"/>
						<path class="st7" d="M274.5,56.6H274c-0.1,0-0.2,0-0.2,0.2l-0.8,2.4c0,0.2,0,0.3,0,0.5v1.2c0,0.1,0.1,0.2,0.2,0.2h1.3
							c0.1,0,0.2-0.1,0.2-0.2v-4c0-0.1-0.1-0.2-0.2-0.2V56.6z"/>
						<path class="st7" d="M275.8,56.6h2.7c0,0,0.1,0,0.1,0.1V59c0,0,0,0.1-0.1,0.1h-2.7c0,0-0.1,0-0.1-0.1v-2.3
							C275.7,56.7,275.7,56.6,275.8,56.6z"/>
						<path class="st7" d="M279.8,56.6h2.9c0,0,0.1,0,0.1,0.1V59c0,0,0,0.1-0.1,0.1h-2.9c0,0-0.1,0-0.1-0.1v-2.3
							C279.7,56.7,279.7,56.6,279.8,56.6z"/>
					</g>
				</g>
				<g>
					<path class="st7" d="M294.3,57.5c0.9,0.2,1.9,0.6,2.5,0.9l-0.4,0.8c-0.6-0.3-1.7-0.7-2.5-0.9L294.3,57.5z M294.7,62.1
						c3-1,5.1-2.6,6.4-5.4c0.2,0.2,0.6,0.5,0.8,0.6c-1.3,2.8-3.5,4.5-6.4,5.5c0,0,0,0.2-0.1,0.2l-0.7-1L294.7,62.1z M295.4,55.2
						c0.9,0.2,1.8,0.6,2.5,0.9l-0.4,0.8c-0.7-0.4-1.6-0.7-2.5-1L295.4,55.2L295.4,55.2z"/>
					<path class="st7" d="M309.1,58.1c0,0,0,0-0.1,0c-0.4,1-1,1.9-1.7,2.6c-0.2-0.1-0.4-0.3-0.6-0.4c0.5-0.5,1-1.2,1.3-1.8l-2.3,0.5
						l0.9,3.9l-0.8,0.2l-0.9-3.9l-2,0.5l-0.2-0.7l2.1-0.4l-0.4-1.9h1c0,0,0,0-0.2,0.1l0.4,1.7l2.9-0.6l0,0l0.6,0.4L309.1,58.1z"/>
					<path class="st7" d="M315.7,60.1c-0.9-0.5-2.2-1.1-3.1-1.5v4.6h-1v-8.3h1.3c0,0.2,0,0.3-0.3,0.3v2.7l0.2-0.3
						c1.1,0.4,2.5,1,3.5,1.5l-0.5,0.9L315.7,60.1z"/>
					<path class="st7" d="M320,56.3c0,0.1,0,0.2-0.2,0.2c0,2.6-0.3,4.9-1.7,6.6c-0.2-0.2-0.6-0.4-0.8-0.5c1.3-1.5,1.5-3.9,1.5-6.4
						h1.2V56.3z M322.4,61.5c1.4-0.7,2.3-2.1,2.8-3.6c0.2,0.2,0.6,0.4,0.8,0.5c-0.7,1.9-1.8,3.3-3.8,4.3c0,0-0.1,0.2-0.2,0.2
						l-0.7-0.9v-0.2c0.1,0,0.1-6.9,0.1-6.9h1.2c0,0.2,0,0.2-0.2,0.3v6.2L322.4,61.5z"/>
					<path class="st7" d="M330,56.4c0,0-0.1,0.1-0.3,0.2c-0.4,2.3-1.1,4.6-2.2,6.1c-0.2-0.2-0.6-0.4-0.9-0.5c1.1-1.3,1.8-3.6,2.1-6
						L330,56.4L330,56.4z M334.4,62.6c-0.4-1.6-1.5-4.2-2.4-6.1l0.9-0.4c1,1.7,2,4.4,2.5,6.1L334.4,62.6z M333.3,54.8
						c0.4,0.4,0.8,1,1.1,1.4l-0.5,0.3c-0.2-0.4-0.7-1-1.1-1.4L333.3,54.8z M334.6,54.4c0.4,0.4,0.9,0.9,1.1,1.3l-0.5,0.3
						c-0.2-0.4-0.7-1-1.1-1.4l0.5-0.3V54.4z"/>
					<path class="st7" d="M342.7,55.9c0,0,0,0.1-0.2,0.1c-0.5,1.2-1.1,2.2-1.8,3.2c1,0.8,2.5,2.1,3.3,3.1l-0.8,0.7
						c-0.8-0.9-2.2-2.3-3.1-3c-0.9,1-2.2,2.3-3.5,3c-0.2-0.2-0.5-0.5-0.7-0.7c2.5-1.3,4.5-3.8,5.3-5.8h-4.5v-0.9h5.2L342.7,55.9
						L342.7,55.9z"/>
					<path class="st7" d="M353,60.8h-2.8c0.8,0.7,2.1,1.4,3.4,1.7c-0.2,0.2-0.5,0.6-0.6,0.8c-1.2-0.4-2.5-1.1-3.4-2v2.2h-0.9v-2.2
						c-0.9,0.9-2.2,1.6-3.3,2c-0.1-0.2-0.4-0.6-0.6-0.8c1.2-0.3,2.5-1,3.3-1.7h-2.8V60h1.3v-0.9h-1.7v-0.8h1.7v-0.9h-1.2v-0.8h3.2
						v-0.7c-1,0-2.1,0.1-3,0.2c0-0.2-0.1-0.6-0.2-0.8c2.3,0,5.1-0.3,6.6-0.6l0.6,0.8c0,0,0,0-0.1,0s0,0-0.1,0
						c-0.8,0.2-1.8,0.3-2.9,0.4v0.8h3.4v0.8h-1.3v0.9h1.7v0.8h-1.7v0.9h1.4v0.8V60.8z M347.4,57.4v0.9h1.2v-0.9H347.4z M347.4,59.1
						V60h1.2v-0.9H347.4z M350.7,57.4h-1.2v0.9h1.2V57.4z M350.7,60v-0.9h-1.2V60H350.7z"/>
					<path class="st7" d="M356.8,55l0.6,0.3v0.1c-0.2,0.7-0.6,1.7-0.9,2.5c0.7,0.8,0.9,1.4,0.9,2c0,1.5-0.9,1.4-1.6,1.4
						c0-0.2,0-0.6-0.2-0.7c0.2,0,0.4,0,0.5,0c0.3,0,0.5-0.1,0.5-0.7s-0.2-1.1-0.9-1.8c0.2-0.7,0.5-1.5,0.7-2.2h-1v7.7h-0.8v-8.5h2.3
						L356.8,55z M361,60.2v1h1.9V62H361v1.4h-0.9V62h-2.9v-0.8h1.1v-1h-0.6v-0.8h2.4v-0.7h1.1c0,0.2,0,0.2-0.2,0.2v0.5h1.6v0.8H361z
						 M361.8,55.4l0.6,0.3c0,0,0,0-0.1,0.1c-0.3,0.7-0.8,1.4-1.4,1.9c0.6,0.4,1.4,0.6,2.2,0.8c-0.2,0.2-0.4,0.5-0.5,0.7
						c-0.9-0.2-1.7-0.6-2.4-1c-0.7,0.5-1.6,0.9-2.4,1.1c0-0.2-0.3-0.5-0.4-0.7c0.8-0.2,1.6-0.5,2.2-0.9c-0.3-0.3-0.6-0.6-0.8-0.9
						c-0.2,0.3-0.5,0.5-0.8,0.8c-0.1-0.2-0.4-0.5-0.6-0.6c0.9-0.7,1.5-1.6,1.8-2.3h1c0,0.2,0,0.3-0.2,0.3c0,0.2-0.2,0.3-0.3,0.5
						L361.8,55.4L361.8,55.4z M359.2,61.2h1v-1h-1V61.2z M359.3,56.1c0.2,0.4,0.6,0.7,0.9,1c0.4-0.3,0.7-0.7,0.9-1h-1.9H359.3z"/>
					<path class="st7" d="M372.5,59.3h-3.9c-0.1,0.2-0.2,0.4-0.4,0.6h3.6h0.5v0.2c-0.2,2-0.3,2.7-0.6,3c-0.3,0.3-0.5,0.3-1.6,0.3
						c0-0.2,0-0.5-0.2-0.7c0.3,0,0.6,0,0.8,0s0.2,0,0.3-0.1c0.2-0.2,0.3-0.7,0.4-2.1h-0.6c-0.3,1.1-1,2.3-1.8,3
						c-0.2-0.2-0.4-0.4-0.6-0.5c0.7-0.5,1.3-1.5,1.7-2.5h-0.8c-0.5,1-1.4,2-2.2,2.6c-0.2-0.2-0.4-0.4-0.6-0.5c0.8-0.4,1.5-1.2,2-2
						h-0.8c-0.4,0.4-0.8,0.8-1.3,1.1c-0.1-0.1-0.4-0.4-0.6-0.5c0.3-0.2,0.6-0.4,0.9-0.7l0,0c-1,0.5-2,0.9-2.7,1.3c0,0,0,0.1-0.1,0.2
						l-0.4-1c0.3-0.1,0.8-0.3,1.2-0.5v-2.9h-1.1v-0.9h1.1v-2h1.1c0,0.1,0,0.2-0.2,0.2v1.8h1v0.9h-1v2.6l0.9-0.4c0,0,0,0,0.2,0.8
						c0.4-0.4,0.7-0.8,0.9-1.2h-1.3v-0.8h6.1v0.8L372.5,59.3z M371.8,54.9v3.2h-4.5v-3.2H371.8z M371,56.1v-0.6h-2.8v0.6H371z
						 M371,57.4v-0.6h-2.8v0.6H371z"/>
				</g>
			</g>
		</g>
		<g>
			<path class="st12" d="M634.4,343.2c0,1.2-1,2.2-2.2,2.2h-15.5c-1.2,0-2.2-1-2.2-2.2v-15.5c0-1.2,1-2.2,2.2-2.2h15.5
				c1.2,0,2.2,1,2.2,2.2V343.2z"/>
			<g>
				<path class="st7" d="M627.8,328c-1.6,0-3,1.6-3,3.5s0.5,2.1,1.2,2.8c0.6,0.5,0.9,1,1,1.9v6c0,0.4,0.3,0.8,0.8,0.8l0,0
					c0.4,0,0.8-0.3,0.8-0.8v-6c0-0.9,0.4-1.3,1-1.9s1.2-1.6,1.2-2.8C630.8,329.6,629.5,328,627.8,328z"/>
				<path class="st7" d="M622.5,328.7v3.2c0,0.2-0.2,0.4-0.4,0.4H622c-0.2,0-0.4-0.2-0.4-0.4v-3.2c0-0.5-0.4-0.7-0.7-0.7
					s-0.7,0.2-0.7,0.7v3.2c0,0.2-0.2,0.4-0.4,0.4l0,0c-0.2,0-0.4-0.2-0.4-0.4v-3.2c0-0.9-1.3-0.9-1.3,0v3c0,1.7,0.4,2.1,1.1,2.7
					c0.5,0.4,1,0.7,1,1.7v6c0,0.4,0.3,0.8,0.8,0.8l0,0c0.4,0,0.8-0.3,0.8-0.8v-6c0-1.1,0.5-1.3,1-1.7c0.7-0.5,1.1-1,1.1-2.7v-3
					C623.9,327.8,622.6,327.7,622.5,328.7L622.5,328.7z"/>
			</g>
		</g>
		<g>
			<path class="st12" d="M567.3,343.2c0,1.2-1,2.2-2.2,2.2h-15.5c-1.2,0-2.2-1-2.2-2.2v-15.5c0-1.2,1-2.2,2.2-2.2h15.5
				c1.2,0,2.2,1,2.2,2.2V343.2z"/>
			<g>
				<path class="st7" d="M560.8,328c-1.6,0-3,1.6-3,3.5s0.5,2.1,1.2,2.8c0.6,0.5,0.9,1,1,1.9v6c0,0.4,0.3,0.8,0.8,0.8l0,0
					c0.4,0,0.8-0.3,0.8-0.8v-6c0-0.9,0.4-1.3,1-1.9s1.2-1.6,1.2-2.8C563.8,329.6,562.5,328,560.8,328z"/>
				<path class="st7" d="M555.5,328.7v3.2c0,0.2-0.2,0.4-0.4,0.4H555c-0.2,0-0.4-0.2-0.4-0.4v-3.2c0-0.5-0.4-0.7-0.7-0.7
					s-0.7,0.2-0.7,0.7v3.2c0,0.2-0.2,0.4-0.4,0.4l0,0c-0.2,0-0.4-0.2-0.4-0.4v-3.2c0-0.9-1.3-0.9-1.3,0v3c0,1.7,0.4,2.1,1.1,2.7
					c0.5,0.4,1,0.7,1,1.7v6c0,0.4,0.3,0.8,0.8,0.8l0,0c0.4,0,0.8-0.3,0.8-0.8v-6c0-1.1,0.5-1.3,1-1.7c0.7-0.5,1.1-1,1.1-2.7v-3
					C556.9,327.8,555.6,327.7,555.5,328.7L555.5,328.7z"/>
			</g>
		</g>
		<g>
			<path class="st12" d="M318.2,476.1c0,1.2-1,2.2-2.2,2.2h-15.5c-1.2,0-2.2-1-2.2-2.2v-15.5c0-1.2,1-2.2,2.2-2.2H316
				c1.2,0,2.2,1,2.2,2.2V476.1z"/>
			<g>
				<path class="st7" d="M311.7,460.9c-1.6,0-3,1.6-3,3.5s0.5,2.1,1.2,2.8c0.6,0.5,0.9,1,1,1.9v6c0,0.4,0.3,0.8,0.8,0.8l0,0
					c0.4,0,0.8-0.3,0.8-0.8v-6c0-0.9,0.4-1.3,1-1.9s1.2-1.6,1.2-2.8C314.7,462.5,313.4,460.9,311.7,460.9z"/>
				<path class="st7" d="M306.3,461.6v3.2c0,0.2-0.2,0.4-0.4,0.4h-0.1c-0.2,0-0.4-0.2-0.4-0.4v-3.2c0-0.5-0.4-0.7-0.7-0.7
					s-0.7,0.2-0.7,0.7v3.2c0,0.2-0.2,0.4-0.4,0.4l0,0c-0.2,0-0.4-0.2-0.4-0.4v-3.2c0-0.9-1.3-0.9-1.3,0v3c0,1.7,0.4,2.1,1.1,2.7
					c0.5,0.4,1,0.7,1,1.7v6c0,0.4,0.3,0.8,0.8,0.8l0,0c0.4,0,0.8-0.3,0.8-0.8v-6c0-1.1,0.5-1.3,1-1.7c0.7-0.5,1.1-1,1.1-2.7v-3
					c0-0.9-1.3-1-1.3,0H306.3z"/>
			</g>
		</g>
		<g>
			<path class="st12" d="M299.2,362.2c0,1.2-1,2.2-2.2,2.2h-15.5c-1.2,0-2.2-1-2.2-2.2v-15.5c0-1.2,1-2.2,2.2-2.2H297
				c1.2,0,2.2,1,2.2,2.2V362.2z"/>
			<g>
				<path class="st7" d="M292.7,347c-1.6,0-3,1.6-3,3.5s0.5,2.1,1.2,2.8c0.6,0.5,0.9,1,1,1.9v6c0,0.4,0.3,0.8,0.8,0.8l0,0
					c0.4,0,0.8-0.3,0.8-0.8v-6c0-0.9,0.4-1.3,1-1.9s1.2-1.6,1.2-2.8C295.7,348.6,294.4,347,292.7,347z"/>
				<path class="st7" d="M287.4,347.7v3.2c0,0.2-0.2,0.4-0.4,0.4h-0.1c-0.2,0-0.4-0.2-0.4-0.4v-3.2c0-0.5-0.4-0.7-0.7-0.7
					s-0.7,0.2-0.7,0.7v3.2c0,0.2-0.2,0.4-0.4,0.4l0,0c-0.2,0-0.4-0.2-0.4-0.4v-3.2c0-0.9-1.3-0.9-1.3,0v3c0,1.7,0.4,2.1,1.1,2.7
					c0.5,0.4,1,0.7,1,1.7v6c0,0.4,0.3,0.8,0.8,0.8l0,0c0.4,0,0.8-0.3,0.8-0.8v-6c0-1.1,0.5-1.3,1-1.7c0.7-0.5,1.1-1,1.1-2.7v-3
					c0-0.9-1.3-1-1.3,0H287.4z"/>
			</g>
		</g>
		<g>
			<path class="st12" d="M256.5,407.3c0,1.2-1,2.2-2.2,2.2h-15.5c-1.2,0-2.2-1-2.2-2.2v-15.5c0-1.2,1-2.2,2.2-2.2h15.5
				c1.2,0,2.2,1,2.2,2.2V407.3z"/>
			<g>
				<path class="st7" d="M242.7,394.6c0.8,0,1.5-0.7,1.5-1.5s-0.7-1.5-1.5-1.5s-1.5,0.7-1.5,1.5S241.9,394.6,242.7,394.6z"/>
				<path class="st7" d="M244,395.3h-2.6c-0.8,0-1.5,0.7-1.5,1.5v5c0,0.4,0.3,0.7,0.7,0.7h0.5l0.3,4.3c0,0.4,0.3,0.7,0.7,0.7h1.5
					c0.4,0,0.7-0.3,0.7-0.7l0.3-4.3c0.5,0,0.4,0,0.4,0c0.4,0,0.7-0.3,0.7-0.7v-5c0-0.7-0.8-1.5-1.5-1.5H244z"/>
				<path class="st7" d="M249.7,394.6c0.8,0,1.5-0.7,1.5-1.5s-0.7-1.5-1.5-1.5s-1.5,0.7-1.5,1.5S248.9,394.6,249.7,394.6z"/>
				<path class="st7" d="M253.3,403.3l-1.6-3.7l0.5-2.6c0-1-0.7-1.7-1.4-1.7h-2.2c-0.7,0-1.5,0.7-1.4,1.7l0.5,2.6l-1.6,3.7
					c0,0.2,0,0.4,0,0.5s0.3,0.2,0.4,0.2h1.6l0.4,2.9c0,0.3,0.2,0.5,0.5,0.5h1c0.3,0,0.5-0.2,0.5-0.5l0.4-2.9h1.6
					c0.2,0,0.3,0,0.4-0.2c0-0.1,0.1-0.3,0-0.5H253.3z"/>
			</g>
		</g>
		<g>
			<path class="st12" d="M254.1,524.3c0,1.2-1,2.2-2.2,2.2h-15.5c-1.2,0-2.2-1-2.2-2.2v-15.5c0-1.2,1-2.2,2.2-2.2h15.5
				c1.2,0,2.2,1,2.2,2.2V524.3z"/>
			<g>
				<path class="st7" d="M240.3,511.6c0.8,0,1.5-0.7,1.5-1.5s-0.7-1.5-1.5-1.5s-1.5,0.7-1.5,1.5S239.5,511.6,240.3,511.6z"/>
				<path class="st7" d="M241.6,512.3H239c-0.8,0-1.5,0.7-1.5,1.5v5c0,0.4,0.3,0.7,0.7,0.7h0.5l0.3,4.3c0,0.4,0.3,0.7,0.7,0.7h1.5
					c0.4,0,0.7-0.3,0.7-0.7l0.3-4.3c0.5,0,0.4,0,0.4,0c0.4,0,0.7-0.3,0.7-0.7v-5c0-0.7-0.8-1.5-1.5-1.5H241.6z"/>
				<path class="st7" d="M247.4,511.6c0.8,0,1.5-0.7,1.5-1.5s-0.7-1.5-1.5-1.5s-1.5,0.7-1.5,1.5S246.6,511.6,247.4,511.6z"/>
				<path class="st7" d="M250.9,520.3l-1.6-3.7l0.5-2.6c0-1-0.7-1.7-1.4-1.7h-2.2c-0.7,0-1.5,0.7-1.4,1.7l0.5,2.6l-1.6,3.7
					c0,0.2,0,0.4,0,0.5s0.3,0.2,0.4,0.2h1.6l0.4,2.9c0,0.3,0.2,0.5,0.5,0.5h1c0.3,0,0.5-0.2,0.5-0.5l0.4-2.9h1.6
					c0.2,0,0.3,0,0.4-0.2c0-0.1,0.1-0.3,0-0.5H250.9z"/>
			</g>
		</g>
		<g>
			<path class="st12" d="M653.9,429.8c0,1.2-1,2.2-2.2,2.2h-15.5c-1.2,0-2.2-1-2.2-2.2v-15.5c0-1.2,1-2.2,2.2-2.2h15.5
				c1.2,0,2.2,1,2.2,2.2V429.8z"/>
			<g>
				<path class="st7" d="M640.1,417.1c0.8,0,1.5-0.7,1.5-1.5s-0.7-1.5-1.5-1.5s-1.5,0.7-1.5,1.5S639.3,417.1,640.1,417.1z"/>
				<path class="st7" d="M641.4,417.8h-2.6c-0.8,0-1.5,0.7-1.5,1.5v5c0,0.4,0.3,0.7,0.7,0.7h0.5l0.3,4.3c0,0.4,0.3,0.7,0.7,0.7h1.5
					c0.4,0,0.7-0.3,0.7-0.7l0.3-4.3c0.5,0,0.4,0,0.4,0c0.4,0,0.7-0.3,0.7-0.7v-5c0-0.7-0.8-1.5-1.5-1.5H641.4z"/>
				<path class="st7" d="M647.2,417.1c0.8,0,1.5-0.7,1.5-1.5s-0.7-1.5-1.5-1.5s-1.5,0.7-1.5,1.5S646.4,417.1,647.2,417.1z"/>
				<path class="st7" d="M650.7,425.8l-1.6-3.7l0.5-2.6c0-1-0.7-1.7-1.4-1.7H646c-0.7,0-1.5,0.7-1.4,1.7l0.5,2.6l-1.6,3.7
					c0,0.2,0,0.4,0,0.5s0.3,0.2,0.4,0.2h1.6l0.4,2.9c0,0.3,0.2,0.5,0.5,0.5h1c0.3,0,0.5-0.2,0.5-0.5l0.4-2.9h1.6
					c0.2,0,0.3,0,0.4-0.2c0-0.1,0.1-0.3,0-0.5H650.7z"/>
			</g>
		</g>
		<g>
			<path class="st12" d="M700,100c0,1.2-1,2.2-2.2,2.2h-15.5c-1.2,0-2.2-1-2.2-2.2V84.5c0-1.2,1-2.2,2.2-2.2h15.5
				c1.2,0,2.2,1,2.2,2.2V100z"/>
			<g>
				<path class="st7" d="M686.2,87.3c0.8,0,1.5-0.7,1.5-1.5s-0.7-1.5-1.5-1.5s-1.5,0.7-1.5,1.5S685.4,87.3,686.2,87.3z"/>
				<path class="st7" d="M687.5,88h-2.6c-0.8,0-1.5,0.7-1.5,1.5v5c0,0.4,0.3,0.7,0.7,0.7h0.5l0.3,4.3c0,0.4,0.3,0.7,0.7,0.7h1.5
					c0.4,0,0.7-0.3,0.7-0.7l0.3-4.3c0.5,0,0.4,0,0.4,0c0.4,0,0.7-0.3,0.7-0.7v-5c0-0.7-0.8-1.5-1.5-1.5H687.5z"/>
				<path class="st7" d="M693.2,87.3c0.8,0,1.5-0.7,1.5-1.5s-0.7-1.5-1.5-1.5s-1.5,0.7-1.5,1.5S692.4,87.3,693.2,87.3z"/>
				<path class="st7" d="M696.8,96l-1.6-3.7l0.5-2.6c0-1-0.7-1.7-1.4-1.7h-2.2c-0.7,0-1.5,0.7-1.4,1.7l0.5,2.6l-1.6,3.7
					c0,0.2,0,0.4,0,0.5s0.3,0.2,0.4,0.2h1.6l0.4,2.9c0,0.3,0.2,0.5,0.5,0.5h1c0.3,0,0.5-0.2,0.5-0.5l0.4-2.9h1.6
					c0.2,0,0.3,0,0.4-0.2c0-0.1,0.1-0.3,0-0.5H696.8z"/>
			</g>
		</g>
		<g>
			<path class="st12" d="M369.2,171.2c0,1.2-1,2.2-2.2,2.2h-15.5c-1.2,0-2.2-1-2.2-2.2v-15.5c0-1.2,1-2.2,2.2-2.2H367
				c1.2,0,2.2,1,2.2,2.2V171.2z"/>
			<g>
				<path class="st7" d="M355.4,158.5c0.8,0,1.5-0.7,1.5-1.5s-0.7-1.5-1.5-1.5s-1.5,0.7-1.5,1.5S354.6,158.5,355.4,158.5z"/>
				<path class="st7" d="M356.7,159.2h-2.6c-0.8,0-1.5,0.7-1.5,1.5v5c0,0.4,0.3,0.7,0.7,0.7h0.5l0.3,4.3c0,0.4,0.3,0.7,0.7,0.7h1.5
					c0.4,0,0.7-0.3,0.7-0.7l0.3-4.3c0.5,0,0.4,0,0.4,0c0.4,0,0.7-0.3,0.7-0.7v-5c0-0.7-0.8-1.5-1.5-1.5H356.7z"/>
				<path class="st7" d="M362.4,158.5c0.8,0,1.5-0.7,1.5-1.5s-0.7-1.5-1.5-1.5s-1.5,0.7-1.5,1.5S361.6,158.5,362.4,158.5z"/>
				<path class="st7" d="M366,167.2l-1.6-3.7l0.5-2.6c0-1-0.7-1.7-1.4-1.7h-2.2c-0.7,0-1.5,0.7-1.4,1.7l0.5,2.6l-1.6,3.7
					c0,0.2,0,0.4,0,0.5s0.3,0.2,0.4,0.2h1.6l0.4,2.9c0,0.3,0.2,0.5,0.5,0.5h1c0.3,0,0.5-0.2,0.5-0.5l0.4-2.9h1.6
					c0.2,0,0.3,0,0.4-0.2c0-0.1,0.1-0.3,0-0.5H366z"/>
			</g>
		</g>
		<g>
			<path class="st12" d="M608.3,213.9c0,1.2-1,2.2-2.2,2.2h-15.5c-1.2,0-2.2-1-2.2-2.2v-15.5c0-1.2,1-2.2,2.2-2.2h15.5
				c1.2,0,2.2,1,2.2,2.2V213.9z"/>
			<path class="st7" d="M603.3,207.7l-0.7-1.9v7h-8.5v-7l-0.7,1.9l-2.9-1l1.4-4l0,0c0.5-1.5,1.7-2.8,4.2-3.1c0,1.2,1,2.2,2.3,2.2
				c1.2,0,2.2-1,2.3-2.2c2.6,0.3,3.8,1.6,4.2,3.1l0,0l1.4,4L603.3,207.7L603.3,207.7z"/>
		</g>
		<g>
			<path class="st12" d="M567.3,393c0,1.2-1,2.2-2.2,2.2h-15.5c-1.2,0-2.2-1-2.2-2.2v-15.5c0-1.2,1-2.2,2.2-2.2h15.5
				c1.2,0,2.2,1,2.2,2.2V393z"/>
			<path class="st7" d="M562.4,386.8l-0.7-1.9v7h-8.5v-7l-0.7,1.9l-2.9-1l1.4-4l0,0c0.5-1.5,1.7-2.8,4.2-3.1c0,1.2,1,2.2,2.3,2.2
				c1.2,0,2.2-1,2.3-2.2c2.6,0.3,3.8,1.6,4.2,3.1l0,0l1.4,4L562.4,386.8L562.4,386.8z"/>
		</g>
		<g>
			<path class="st12" d="M319.4,306.4c0,1.2-1,2.2-2.2,2.2h-15.5c-1.2,0-2.2-1-2.2-2.2v-15.5c0-1.2,1-2.2,2.2-2.2h15.5
				c1.2,0,2.2,1,2.2,2.2V306.4z"/>
			<path class="st7" d="M314.5,300.2l-0.7-1.9v7h-8.5v-7l-0.7,1.9l-2.9-1l1.4-4l0,0c0.5-1.5,1.7-2.8,4.2-3.1c0,1.2,1,2.2,2.3,2.2
				c1.2,0,2.2-1,2.3-2.2c2.6,0.3,3.8,1.6,4.2,3.1l0,0l1.4,4L314.5,300.2L314.5,300.2z"/>
		</g>
		<g>
			<path class="st12" d="M222.1,524.3c0,1.2-1,2.2-2.2,2.2h-15.5c-1.2,0-2.2-1-2.2-2.2v-15.5c0-1.2,1-2.2,2.2-2.2h15.5
				c1.2,0,2.2,1,2.2,2.2V524.3z"/>
			<g>
				<path class="st7" d="M210.9,513.8c0.2,0.4,0.6,0.6,1,0.7c0.4,0.1,0.9,0.2,1.4,0.2h0.7c0.3,0,0.5,0,0.6,0c0,0,0.1,0,0.2,0l0,0
					c0,0,0,0.1,0,0.2c0,0.1,0,0.3,0,0.5c0,0.4,0,0.9,0.2,1.4c0,0.2,0.2,0.5,0.5,0.6c0.2,0.2,0.5,0.2,0.9,0.2c0.2,0,0.4,0,0.6,0h0.1
					c0,0,0,0.1,0,0.3v0.6h0.8v-0.6c0-0.2,0-0.3,0-0.5c0-0.1,0-0.2-0.2-0.3c0,0-0.2-0.1-0.3-0.1s-0.3,0-0.4,0c-0.1,0-0.3,0-0.5,0
					s-0.4,0-0.5-0.1c0,0-0.1-0.1-0.2-0.2c0-0.1-0.1-0.3-0.1-0.5s0-0.5,0-0.7s0-0.4,0-0.6c0-0.1,0-0.3-0.1-0.4c0-0.1-0.1-0.2-0.2-0.3
					c-0.2-0.1-0.3-0.2-0.5-0.3c-0.2,0-0.3,0-0.5,0l0,0h-0.9c-0.4,0-0.8,0-1.1-0.1c-0.2,0-0.4-0.1-0.5-0.2c-0.2-0.2-0.3-0.4-0.5-0.7
					c-0.1-0.4-0.2-0.8-0.2-1.5v-1.3h-0.8v1.4c0,0.6,0,1.1,0.2,1.5C210.6,513.3,210.8,513.6,210.9,513.8L210.9,513.8z"/>
				<path class="st7" d="M219.6,516.1c0-0.2-0.1-0.4-0.3-0.6c-0.1,0-0.2-0.2-0.4-0.2c-0.1,0-0.3,0-0.5,0c-0.1,0-0.2,0-0.2,0l0,0l0,0
					c0,0,0-0.1,0-0.3c0-0.1,0-0.5,0-0.5s0-0.5,0-0.8s0-0.3,0-0.5c0-0.3,0-0.5-0.1-0.8s-0.4-0.6-0.7-0.8c-0.3-0.2-0.7-0.3-1.1-0.3
					s0,0,0,0l0,0c-0.2,0-0.3,0-0.4,0c0,0-0.1,0-0.1-0.1c0,0,0-0.2-0.1-0.4c0-0.2,0-0.4,0-0.5c0,0,0,0,0-0.2h-0.8c0,0,0,0.1,0,0.2
					c0,0.4,0,0.8,0.2,1.2c0,0.2,0.3,0.4,0.5,0.5c0.2,0.1,0.5,0.2,0.8,0.2h0.2c0.2,0,0.4,0,0.5,0c0.2,0,0.3,0.2,0.4,0.3
					c0,0.1,0.2,0.4,0.2,0.7c0,0.2,0,0.3,0,0.4c0,0.3,0,0.5,0,0.7s0,0.3,0,0.5c0,0.1,0,0.3,0,0.4c0,0,0,0.2,0,0.3c0,0,0,0.1,0.2,0.2
					c0.1,0,0.2,0.1,0.3,0.2c0.1,0,0.2,0,0.4,0c0.1,0,0.2,0,0.3,0l0,0c0,0,0,0,0,0.2c0,0,0,0.2,0,0.3v2.3h0.8v-2.3
					C219.7,516.3,219.7,516.2,219.6,516.1L219.6,516.1z"/>
				<rect x="204.8" y="520.2" class="st7" width="4.6" height="2.9"/>
				<rect x="210.5" y="520.2" class="st7" width="8.9" height="2.9"/>
			</g>
		</g>
		<g>
			<path class="st12" d="M377.5,120.2c0,1.2-1,2.2-2.2,2.2h-15.5c-1.2,0-2.2-1-2.2-2.2v-15.5c0-1.2,1-2.2,2.2-2.2h15.5
				c1.2,0,2.2,1,2.2,2.2V120.2z"/>
			<g>
				<path class="st7" d="M366.3,109.6c0.2,0.4,0.6,0.6,1,0.7s0.9,0.2,1.4,0.2h0.7c0.3,0,0.5,0,0.6,0c0,0,0.1,0,0.2,0l0,0
					c0,0,0,0.1,0,0.2s0,0.3,0,0.5c0,0.4,0,0.9,0.2,1.4c0,0.2,0.2,0.5,0.5,0.6c0.2,0.2,0.5,0.2,0.9,0.2c0.2,0,0.4,0,0.6,0h0.1
					c0,0,0,0.1,0,0.3v0.6h0.8v-0.6c0-0.2,0-0.3,0-0.5c0-0.1,0-0.2-0.2-0.3c0,0-0.2-0.1-0.3-0.1c-0.1,0-0.3,0-0.4,0s-0.3,0-0.5,0
					s-0.4,0-0.5-0.1c0,0-0.1-0.1-0.2-0.2c0-0.1-0.1-0.3-0.1-0.5s0-0.5,0-0.7s0-0.4,0-0.6c0-0.1,0-0.3-0.1-0.4c0-0.1-0.1-0.2-0.2-0.3
					c-0.2-0.1-0.3-0.2-0.5-0.3c-0.2,0-0.3,0-0.5,0l0,0h-0.9c-0.4,0-0.8,0-1.1-0.1c-0.2,0-0.4-0.1-0.5-0.2c-0.2-0.2-0.3-0.4-0.5-0.7
					c-0.1-0.4-0.2-0.8-0.2-1.5v-1.3h-0.8v1.4c0,0.6,0,1.1,0.2,1.5c0,0.3,0.2,0.6,0.4,0.8H366.3z"/>
				<path class="st7" d="M375,111.9c0-0.2-0.1-0.4-0.3-0.6c-0.1,0-0.2-0.2-0.4-0.2c-0.1,0-0.3,0-0.5,0c-0.1,0-0.2,0-0.2,0l0,0l0,0
					c0,0,0-0.1,0-0.3c0-0.1,0-0.5,0-0.5s0-0.5,0-0.8s0-0.3,0-0.5c0-0.3,0-0.5-0.1-0.8s-0.4-0.6-0.7-0.8c-0.3-0.2-0.7-0.3-1.1-0.3
					s0,0,0,0l0,0c-0.2,0-0.3,0-0.4,0c0,0-0.1,0-0.1-0.1c0,0,0-0.2-0.1-0.4c0-0.2,0-0.4,0-0.5c0,0,0,0,0-0.2h-0.8c0,0,0,0.1,0,0.2
					c0,0.4,0,0.8,0.2,1.2c0,0.2,0.3,0.4,0.5,0.5s0.5,0.2,0.8,0.2h0.2c0.2,0,0.4,0,0.5,0c0.2,0,0.3,0.2,0.4,0.3
					c0,0.1,0.2,0.4,0.2,0.7c0,0.2,0,0.3,0,0.4c0,0.3,0,0.5,0,0.7s0,0.3,0,0.5c0,0.1,0,0.3,0,0.4c0,0,0,0.2,0,0.3c0,0,0,0.1,0.2,0.2
					c0.1,0,0.2,0.1,0.3,0.2c0.1,0,0.2,0,0.4,0c0.1,0,0.2,0,0.3,0l0,0c0,0,0,0,0,0.2c0,0,0,0.2,0,0.3v2.3h0.8v-2.3c0-0.1,0-0.2,0-0.4
					L375,111.9z"/>
				<rect x="360.2" y="116.1" class="st7" width="4.6" height="2.9"/>
				<rect x="365.9" y="116.1" class="st7" width="8.9" height="2.9"/>
			</g>
		</g>
		<g>
			<path class="st12" d="M670.3,100c0,1.2-1,2.2-2.2,2.2h-15.5c-1.2,0-2.2-1-2.2-2.2V84.5c0-1.2,1-2.2,2.2-2.2h15.5
				c1.2,0,2.2,1,2.2,2.2V100z"/>
			<g>
				<path class="st7" d="M659.1,89.5c0.2,0.4,0.6,0.6,1,0.7s0.9,0.2,1.4,0.2h0.7c0.3,0,0.5,0,0.6,0c0,0,0.1,0,0.2,0l0,0
					c0,0,0,0.1,0,0.2s0,0.3,0,0.5c0,0.4,0,0.9,0.2,1.4c0,0.2,0.2,0.5,0.5,0.6c0.2,0.2,0.5,0.2,0.9,0.2c0.2,0,0.4,0,0.6,0h0.1
					c0,0,0,0.1,0,0.3v0.6h0.8v-0.6c0-0.2,0-0.3,0-0.5c0-0.1,0-0.2-0.2-0.3c0,0-0.2-0.1-0.3-0.1s-0.3,0-0.4,0c-0.1,0-0.3,0-0.5,0
					s-0.4,0-0.5-0.1c0,0-0.1-0.1-0.2-0.2c0-0.1-0.1-0.3-0.1-0.5s0-0.5,0-0.7s0-0.4,0-0.6c0-0.1,0-0.3-0.1-0.4c0-0.1-0.1-0.2-0.2-0.3
					c-0.2-0.1-0.3-0.2-0.5-0.3c-0.2,0-0.3,0-0.5,0l0,0h-0.9c-0.4,0-0.8,0-1.1-0.1c-0.2,0-0.4-0.1-0.5-0.2c-0.2-0.2-0.3-0.4-0.5-0.7
					c-0.1-0.4-0.2-0.8-0.2-1.5v-1.3h-0.8v1.4c0,0.6,0,1.1,0.2,1.5c0,0.3,0.2,0.6,0.4,0.8H659.1z"/>
				<path class="st7" d="M667.8,91.8c0-0.2-0.1-0.4-0.3-0.6c-0.1,0-0.2-0.2-0.4-0.2c-0.1,0-0.3,0-0.5,0c-0.1,0-0.2,0-0.2,0l0,0l0,0
					c0,0,0-0.1,0-0.3c0-0.1,0-0.5,0-0.5s0-0.5,0-0.8s0-0.3,0-0.5c0-0.3,0-0.5-0.1-0.8s-0.4-0.6-0.7-0.8c-0.3-0.2-0.7-0.3-1.1-0.3
					s0,0,0,0l0,0c-0.2,0-0.3,0-0.4,0c0,0-0.1,0-0.1-0.1c0,0,0-0.2-0.1-0.4c0-0.2,0-0.4,0-0.5c0,0,0,0,0-0.2h-0.8c0,0,0,0.1,0,0.2
					c0,0.4,0,0.8,0.2,1.2c0,0.2,0.3,0.4,0.5,0.5s0.5,0.2,0.8,0.2h0.2c0.2,0,0.4,0,0.5,0c0.2,0,0.3,0.2,0.4,0.3
					c0,0.1,0.2,0.4,0.2,0.7c0,0.2,0,0.3,0,0.4c0,0.3,0,0.5,0,0.7s0,0.3,0,0.5c0,0.1,0,0.3,0,0.4c0,0,0,0.2,0,0.3c0,0,0,0.1,0.2,0.2
					c0.1,0,0.2,0.1,0.3,0.2c0.1,0,0.2,0,0.4,0c0.1,0,0.2,0,0.3,0l0,0c0,0,0,0,0,0.2c0,0,0,0.2,0,0.3v2.3h0.8v-2.3c0-0.1,0-0.2,0-0.4
					L667.8,91.8z"/>
				<rect x="653" y="95.9" class="st7" width="4.6" height="2.9"/>
				<rect x="658.7" y="95.9" class="st7" width="8.9" height="2.9"/>
			</g>
		</g>
		<g>
			<path class="st12" d="M401.2,476.1c0,1.2-1,2.2-2.2,2.2h-15.5c-1.2,0-2.2-1-2.2-2.2v-15.5c0-1.2,1-2.2,2.2-2.2H399
				c1.2,0,2.2,1,2.2,2.2V476.1z"/>
			<g>
				<path class="st7" d="M388.8,460.1h5.1c0.2,0,0.4,0.2,0.4,0.4v0.2c0,0.2-0.2,0.4-0.4,0.4h-5.1c-0.2,0-0.4-0.2-0.4-0.4v-0.2
					C388.4,460.3,388.6,460.1,388.8,460.1z"/>
				<path class="st7" d="M394.4,463.3h-1.1v-2.2h-0.7v2.2h-2.3v-2.2h-0.7v2.2h-1.1c-1.3,0-2.3,1-2.3,2.3v8.1c0,1.1,0.8,2.1,1.9,2.2
					v0.4c0,0.2,0.1,0.3,0.3,0.3h0.2c0.2,0,0.3-0.1,0.3-0.3V476h5.2v0.3c0,0.2,0.1,0.3,0.3,0.3h0.2c0.2,0,0.3-0.1,0.3-0.3v-0.4
					c1.1-0.2,1.9-1.1,1.9-2.2v-8.1C396.8,464.3,395.8,463.3,394.4,463.3L394.4,463.3z M395.8,473.7c0,0.4-0.2,0.7-0.4,1
					c-0.2,0.2-0.5,0.4-0.8,0.4c0,0,0,0-0.1,0h-0.2c0,0,0,0-0.1,0h-5.6c0,0,0,0-0.1,0h-0.2c0,0,0,0-0.1,0c-0.3,0-0.6-0.2-0.8-0.4
					c-0.3-0.3-0.4-0.6-0.4-1v-8.1c0-0.4,0.2-0.7,0.4-1c0.3-0.3,0.6-0.4,1-0.4h6.1c0.4,0,0.7,0.2,1,0.4c0.3,0.3,0.4,0.6,0.4,1
					L395.8,473.7L395.8,473.7z"/>
				<path class="st7" d="M388.3,466.6v6.6c0,0.1,0,0.2,0.2,0.3s0.3,0,0.3-0.2v-6.7c0-0.1-0.1-0.3-0.3-0.2S388.3,466.5,388.3,466.6
					L388.3,466.6z"/>
				<path class="st7" d="M390.2,466.6v6.6c0,0.1,0,0.2,0.2,0.3s0.3,0,0.3-0.2v-6.7c0-0.1-0.1-0.3-0.3-0.2S390.2,466.5,390.2,466.6
					L390.2,466.6z"/>
				<path class="st7" d="M392,466.6v6.6c0,0.1,0,0.2,0.2,0.3s0.3,0,0.3-0.2v-6.7c0-0.1-0.1-0.3-0.3-0.2S392,466.5,392,466.6
					L392,466.6z"/>
				<path class="st7" d="M393.9,466.6v6.6c0,0.1,0,0.2,0.2,0.3s0.3,0,0.3-0.2v-6.7c0-0.1-0.1-0.3-0.3-0.2S393.9,466.5,393.9,466.6
					L393.9,466.6z"/>
			</g>
		</g>
		<g>
			<path class="st12" d="M528.2,184.3c0,1.2-1,2.2-2.2,2.2h-15.5c-1.2,0-2.2-1-2.2-2.2v-15.5c0-1.2,1-2.2,2.2-2.2H526
				c1.2,0,2.2,1,2.2,2.2V184.3z"/>
			<g>
				<path class="st7" d="M515.7,168.2h5.1c0.2,0,0.4,0.2,0.4,0.4v0.2c0,0.2-0.2,0.4-0.4,0.4h-5.1c-0.2,0-0.4-0.2-0.4-0.4v-0.2
					C515.3,168.4,515.5,168.2,515.7,168.2z"/>
				<path class="st7" d="M521.3,171.5h-1.1v-2.2h-0.7v2.2h-2.3v-2.2h-0.7v2.2h-1.1c-1.3,0-2.3,1-2.3,2.3v8.1c0,1.1,0.8,2.1,1.9,2.2
					v0.4c0,0.2,0.1,0.3,0.3,0.3h0.2c0.2,0,0.3-0.1,0.3-0.3v-0.3h5.2v0.3c0,0.2,0.1,0.3,0.3,0.3h0.2c0.2,0,0.3-0.1,0.3-0.3v-0.4
					c1.1-0.2,1.9-1.1,1.9-2.2v-8.1c0-1.3-1-2.3-2.3-2.3H521.3z M522.7,181.9c0,0.4-0.2,0.7-0.4,1c-0.2,0.2-0.5,0.4-0.8,0.4
					c0,0,0,0-0.1,0h-0.2c0,0,0,0-0.1,0h-5.6c0,0,0,0-0.1,0h-0.2c0,0,0,0-0.1,0c-0.3,0-0.6-0.2-0.8-0.4c-0.3-0.3-0.4-0.6-0.4-1v-8.1
					c0-0.4,0.2-0.7,0.4-1c0.3-0.3,0.6-0.4,1-0.4h6.1c0.4,0,0.7,0.2,1,0.4c0.3,0.3,0.4,0.6,0.4,1v8.1H522.7z"/>
				<path class="st7" d="M515.3,174.8v6.6c0,0.1,0,0.2,0.2,0.3s0.3,0,0.3-0.2v-6.7c0-0.1-0.1-0.3-0.3-0.2s-0.2,0.1-0.2,0.3V174.8z"
					/>
				<path class="st7" d="M517.1,174.8v6.6c0,0.1,0,0.2,0.2,0.3s0.3,0,0.3-0.2v-6.7c0-0.1-0.1-0.3-0.3-0.2s-0.2,0.1-0.2,0.3V174.8z"
					/>
				<path class="st7" d="M518.9,174.8v6.6c0,0.1,0,0.2,0.2,0.3s0.3,0,0.3-0.2v-6.7c0-0.1-0.1-0.3-0.3-0.2s-0.2,0.1-0.2,0.3V174.8z"
					/>
				<path class="st7" d="M520.8,174.8v6.6c0,0.1,0,0.2,0.2,0.3s0.3,0,0.3-0.2v-6.7c0-0.1-0.1-0.3-0.3-0.2s-0.2,0.1-0.2,0.3V174.8z"
					/>
			</g>
		</g>
		<g>
			<path class="st12" d="M356.2,389.5c0,1.2-1,2.2-2.2,2.2h-15.5c-1.2,0-2.2-1-2.2-2.2V374c0-1.2,1-2.2,2.2-2.2H354
				c1.2,0,2.2,1,2.2,2.2V389.5z"/>
			<g>
				<path class="st7" d="M354,378.3c-0.2-0.5-0.5-0.9-0.9-1.1c-0.4-0.3-0.9-0.4-1.5-0.4h-2.2v-0.6c0-0.3,0-0.6-0.2-0.9
					c-0.2-0.4-0.5-0.8-0.8-1c-0.4-0.2-0.8-0.4-1.3-0.4h-1.8c-0.3,0-0.6,0-0.9,0.2c-0.4,0.2-0.8,0.5-1,0.8c-0.2,0.4-0.4,0.8-0.4,1.3
					v0.6h-2.2c-0.4,0-0.7,0-1,0.2c-0.5,0.2-0.9,0.5-1.1,0.9c-0.3,0.4-0.4,0.9-0.4,1.5v7.8c0,0.4,0,0.7,0.2,1
					c0.2,0.5,0.5,0.9,0.9,1.1c0.4,0.3,0.9,0.4,1.5,0.4h10.8c0.4,0,0.7,0,1-0.2c0.5-0.2,0.9-0.5,1.1-0.9c0.3-0.4,0.4-0.9,0.4-1.5
					v-7.8C354.2,378.9,354.2,378.6,354,378.3z M344.2,376.1c0-0.2,0-0.3,0-0.4c0-0.2,0.2-0.4,0.4-0.5c0.2-0.1,0.4-0.2,0.6-0.2h1.8
					c0.2,0,0.3,0,0.4,0c0.2,0,0.4,0.2,0.5,0.4c0.1,0.2,0.2,0.4,0.2,0.6v0.6H344V376L344.2,376.1z M353.1,387.1c0,0.2,0,0.4-0.1,0.6
					c-0.1,0.3-0.3,0.5-0.5,0.6c-0.2,0.2-0.5,0.2-0.8,0.2h-10.8c-0.2,0-0.4,0-0.6-0.1c-0.3-0.1-0.5-0.3-0.6-0.5
					c-0.2-0.2-0.2-0.5-0.2-0.8v-5.9h13.7v5.9l0,0L353.1,387.1z M353.1,380.2h-13.7v-0.9c0-0.2,0-0.4,0.1-0.6
					c0.1-0.3,0.3-0.5,0.5-0.6c0.2-0.2,0.5-0.2,0.8-0.2h10.8c0.2,0,0.4,0,0.6,0.1c0.3,0.1,0.5,0.3,0.6,0.5c0.2,0.2,0.2,0.5,0.2,0.8
					v0.9l0,0L353.1,380.2z"/>
				<polygon class="st7" points="345.4,387.4 347.2,387.4 347.2,385.7 348.9,385.7 348.9,383.9 347.2,383.9 347.2,382.2 
					345.4,382.2 345.4,383.9 343.7,383.9 343.7,385.7 345.4,385.7 				"/>
			</g>
		</g>
		<g>
			<path class="st12" d="M428.5,129.7c0,1.2-1,2.2-2.2,2.2h-15.5c-1.2,0-2.2-1-2.2-2.2v-15.5c0-1.2,1-2.2,2.2-2.2h15.5
				c1.2,0,2.2,1,2.2,2.2V129.7z"/>
			<g>
				<path class="st7" d="M426.4,118.5c-0.2-0.5-0.5-0.9-0.9-1.1c-0.4-0.3-0.9-0.4-1.5-0.4h-2.2v-0.6c0-0.3,0-0.6-0.2-0.9
					c-0.2-0.4-0.5-0.8-0.8-1c-0.4-0.2-0.8-0.4-1.3-0.4h-1.8c-0.3,0-0.6,0-0.9,0.2c-0.4,0.2-0.8,0.5-1,0.8c-0.2,0.4-0.4,0.8-0.4,1.3
					v0.6h-2.2c-0.4,0-0.7,0-1,0.2c-0.5,0.2-0.9,0.5-1.1,0.9c-0.3,0.4-0.4,0.9-0.4,1.5v7.8c0,0.4,0,0.7,0.2,1
					c0.2,0.5,0.5,0.9,0.9,1.1c0.4,0.3,0.9,0.4,1.5,0.4h10.8c0.4,0,0.7,0,1-0.2c0.5-0.2,0.9-0.5,1.1-0.9c0.3-0.4,0.4-0.9,0.4-1.5
					v-7.8C426.6,119.1,426.6,118.8,426.4,118.5z M416.6,116.3c0-0.2,0-0.3,0-0.4c0-0.2,0.2-0.4,0.4-0.5c0.2-0.1,0.4-0.2,0.6-0.2h1.8
					c0.2,0,0.3,0,0.4,0c0.2,0,0.4,0.2,0.5,0.4c0.1,0.2,0.2,0.4,0.2,0.6v0.6h-4.1v-0.6L416.6,116.3z M425.5,127.3
					c0,0.2,0,0.4-0.1,0.6c-0.1,0.3-0.3,0.5-0.5,0.6c-0.2,0.2-0.5,0.2-0.8,0.2h-10.8c-0.2,0-0.4,0-0.6-0.1c-0.3-0.1-0.5-0.3-0.6-0.5
					c-0.2-0.2-0.2-0.5-0.2-0.8v-5.9h13.7v5.9l0,0L425.5,127.3z M425.5,120.4h-13.7v-0.9c0-0.2,0-0.4,0.1-0.6
					c0.1-0.3,0.3-0.5,0.5-0.6c0.2-0.2,0.5-0.2,0.8-0.2H424c0.2,0,0.4,0,0.6,0.1c0.3,0.1,0.5,0.3,0.6,0.5c0.2,0.2,0.2,0.5,0.2,0.8
					v0.9l0,0L425.5,120.4z"/>
				<polygon class="st7" points="417.8,127.6 419.6,127.6 419.6,125.9 421.3,125.9 421.3,124.1 419.6,124.1 419.6,122.4 
					417.8,122.4 417.8,124.1 416.1,124.1 416.1,125.9 417.8,125.9 				"/>
			</g>
		</g>
		<g>
			<path class="st12" d="M634.4,393c0,1.2-1,2.2-2.2,2.2h-15.5c-1.2,0-2.2-1-2.2-2.2v-15.5c0-1.2,1-2.2,2.2-2.2h15.5
				c1.2,0,2.2,1,2.2,2.2V393z"/>
			<g>
				<path class="st7" d="M619,392.1c0,0.9,0.8,1.5,1.7,1.5h7.5c0.9,0,1.6-0.7,1.7-1.5l0.8-10.9h-12.6L619,392.1L619,392.1z
					 M629.8,382l-0.8,10c0,0.4-0.4,0.8-0.8,0.8h-7.5c-0.4,0-0.8-0.3-0.8-0.8l-0.8-10H629.8L629.8,382z"/>
				<path class="st7" d="M622.1,391.1c0.2,0,0.3-0.2,0.3-0.4l-0.3-6.6c0-0.2-0.2-0.3-0.4-0.3s-0.3,0.2-0.3,0.4l0.3,6.6
					C621.7,391,621.9,391.1,622.1,391.1z"/>
				<path class="st7" d="M624.8,390.8v-6.6c0-0.2-0.1-0.3-0.3-0.4s-0.4,0.1-0.4,0.3v6.6c0,0.2,0.2,0.4,0.4,0.3s0.3-0.2,0.3-0.4
					V390.8z"/>
				<path class="st7" d="M626.8,391.1c0.2,0,0.4-0.1,0.4-0.3l0.3-6.6c0-0.2-0.1-0.4-0.3-0.4s-0.4,0.1-0.4,0.3l-0.3,6.6
					C626.5,390.9,626.6,391.1,626.8,391.1z"/>
				<path class="st7" d="M630.4,379.1c0,0-1.1-0.2-1.4-0.3c-0.3,0-2.6-0.4-2.6-0.4v-0.6c-0.1-0.4-0.5-0.8-0.9-0.8h-2
					c-0.4,0-0.8,0.3-0.8,0.8v0.6c0,0-2.4,0.4-2.7,0.4s-1.4,0.3-1.4,0.3c-0.3,0-0.6,0.4-0.6,0.8v0.7h13v-0.7
					C631,379.5,630.8,379.2,630.4,379.1z M625.1,378.2h-1.3c-0.1,0-0.2,0-0.2-0.2s0-0.2,0.2-0.2h1.3c0.1,0,0.2,0,0.2,0.2
					S625.3,378.2,625.1,378.2z"/>
			</g>
		</g>
		<g>
			<path class="st12" d="M349,476.1c0,1.2-1,2.2-2.2,2.2h-15.5c-1.2,0-2.2-1-2.2-2.2v-15.5c0-1.2,1-2.2,2.2-2.2h15.5
				c1.2,0,2.2,1,2.2,2.2V476.1z"/>
			<g>
				<path class="st7" d="M333.7,475.1c0,0.9,0.8,1.5,1.7,1.5h7.5c0.9,0,1.6-0.7,1.7-1.5l0.8-10.9h-12.6l0.8,10.9H333.7z
					 M344.5,465.1l-0.8,10c0,0.4-0.4,0.8-0.8,0.8h-7.5c-0.4,0-0.8-0.3-0.8-0.8l-0.8-10H344.5L344.5,465.1z"/>
				<path class="st7" d="M336.7,474.2c0.2,0,0.3-0.2,0.3-0.4l-0.3-6.6c0-0.2-0.2-0.3-0.4-0.3s-0.3,0.2-0.3,0.4l0.3,6.6
					C336.3,474.1,336.5,474.2,336.7,474.2z"/>
				<path class="st7" d="M339.5,473.8v-6.6c0-0.2-0.1-0.3-0.3-0.4s-0.4,0.1-0.4,0.3v6.6c0,0.2,0.2,0.4,0.4,0.3s0.3-0.2,0.3-0.4
					V473.8z"/>
				<path class="st7" d="M341.5,474.2c0.2,0,0.4-0.1,0.4-0.3l0.3-6.6c0-0.2-0.1-0.4-0.3-0.4s-0.4,0.1-0.4,0.3l-0.3,6.6
					C341.2,474,341.3,474.2,341.5,474.2z"/>
				<path class="st7" d="M345.1,462.1c0,0-1.1-0.2-1.4-0.3c-0.3,0-2.6-0.4-2.6-0.4v-0.6c-0.1-0.4-0.5-0.8-0.9-0.8h-2
					c-0.4,0-0.8,0.3-0.8,0.8v0.6c0,0-2.4,0.4-2.7,0.4c-0.3,0-1.4,0.3-1.4,0.3c-0.3,0-0.6,0.4-0.6,0.8v0.7h13v-0.7
					C345.7,462.5,345.5,462.2,345.1,462.1z M339.8,461.3h-1.3c-0.1,0-0.2,0-0.2-0.2s0-0.2,0.2-0.2h1.3c0.1,0,0.2,0,0.2,0.2
					S340,461.3,339.8,461.3z"/>
			</g>
		</g>
		<g>
			<path class="st12" d="M402.4,524.3c0,1.2-1,2.2-2.2,2.2h-15.5c-1.2,0-2.2-1-2.2-2.2v-15.5c0-1.2,1-2.2,2.2-2.2h15.5
				c1.2,0,2.2,1,2.2,2.2V524.3z"/>
			<g>
				<path class="st7" d="M400.8,514c0-1.3-1.1-2.4-2.4-2.4h-12.3c-0.4,0-0.8,0.3-0.9,0.6l-0.9,2.8c0,0.3-0.1,0.6-0.1,0.8v4h2.8
					c0,0.9,0.8,1.6,1.7,1.6s1.6-0.7,1.7-1.6h4.5c0,0.9,0.8,1.6,1.7,1.6s1.6-0.7,1.7-1.6h2.6v-5.9L400.8,514z M389.4,520
					c0,0.3-0.4,0.6-0.7,0.6s-0.7-0.3-0.7-0.6c0,0,0,0,0-0.1s0-0.2,0-0.3c0.1-0.2,0.4-0.4,0.6-0.4s0.5,0.2,0.6,0.4c0,0,0,0.2,0,0.3
					c0,0,0,0,0,0.1H389.4z M397.2,520c0,0.3-0.4,0.6-0.7,0.6s-0.7-0.3-0.7-0.6c0,0,0,0,0-0.1s0-0.2,0-0.3c0.1-0.2,0.4-0.4,0.6-0.4
					s0.5,0.2,0.6,0.4c0,0,0,0.2,0,0.3c0,0,0,0,0,0.1H397.2z M400.4,519.5h-2.2c-0.1-0.8-0.8-1.4-1.6-1.4s-1.5,0.6-1.6,1.4h-4.6
					c-0.1-0.8-0.8-1.4-1.6-1.4s-1.5,0.6-1.6,1.4h-2.4v-3.6c0-0.2,0-0.5,0.1-0.7l0.9-2.8c0-0.2,0.3-0.4,0.5-0.4h12.3
					c0.5,0,1,0.2,1.4,0.6c0.4,0.4,0.6,0.8,0.6,1.4v5.5l0,0H400.4z"/>
				<path class="st7" d="M398.2,512.9h-1.3c-0.1,0-0.2,0.1-0.2,0.2v2.1c0,0.1,0.1,0.2,0.2,0.2h2.2c0.1,0,0.2-0.1,0.2-0.2v-1.1
					C399.3,513.5,398.8,512.9,398.2,512.9L398.2,512.9z"/>
				<path class="st7" d="M387.2,512.9h-0.5c-0.1,0-0.2,0-0.2,0.2l-0.8,2.4c0,0.2,0,0.3,0,0.5v1.2c0,0.1,0.1,0.2,0.2,0.2h1.3
					c0.1,0,0.2-0.1,0.2-0.2v-4c0-0.1-0.1-0.2-0.2-0.2V512.9z"/>
				<path class="st7" d="M388.5,512.9h2.7c0,0,0.1,0,0.1,0.1v2.3c0,0,0,0.1-0.1,0.1h-2.7c0,0-0.1,0-0.1-0.1V513
					C388.4,513,388.4,512.9,388.5,512.9z"/>
				<path class="st7" d="M392.5,512.9h2.9c0.1,0,0.1,0,0.1,0.1v2.3c0,0.1,0,0.1-0.1,0.1h-2.9c-0.1,0-0.1,0-0.1-0.1V513
					C392.4,512.9,392.4,512.9,392.5,512.9z"/>
			</g>
		</g>
		<g>
			<path class="st12" d="M690.5,280.3c0,1.2-1,2.2-2.2,2.2h-15.5c-1.2,0-2.2-1-2.2-2.2v-15.5c0-1.2,1-2.2,2.2-2.2h15.5
				c1.2,0,2.2,1,2.2,2.2V280.3z"/>
			<g>
				<path class="st7" d="M688.9,270c0-1.3-1.1-2.4-2.4-2.4h-12.3c-0.4,0-0.8,0.3-0.9,0.6l-0.9,2.8c0,0.3-0.1,0.6-0.1,0.8v4h2.8
					c0,0.9,0.8,1.6,1.7,1.6s1.6-0.7,1.7-1.6h4.5c0,0.9,0.8,1.6,1.7,1.6s1.6-0.7,1.7-1.6h2.6v-5.9L688.9,270z M677.5,276
					c0,0.3-0.4,0.6-0.7,0.6s-0.7-0.3-0.7-0.6c0,0,0,0,0-0.1s0-0.2,0-0.3c0.1-0.2,0.4-0.4,0.6-0.4s0.5,0.2,0.6,0.4c0,0,0,0.2,0,0.3
					c0,0,0,0,0,0.1H677.5z M685.3,276c0,0.3-0.4,0.6-0.7,0.6s-0.7-0.3-0.7-0.6c0,0,0,0,0-0.1s0-0.2,0-0.3c0.1-0.2,0.4-0.4,0.6-0.4
					s0.5,0.2,0.6,0.4c0,0,0,0.2,0,0.3c0,0,0,0,0,0.1H685.3z M688.4,275.5h-2.2c-0.1-0.8-0.8-1.4-1.6-1.4s-1.5,0.6-1.6,1.4h-4.6
					c-0.1-0.8-0.8-1.4-1.6-1.4s-1.5,0.6-1.6,1.4h-2.4v-3.6c0-0.2,0-0.5,0.1-0.7l0.9-2.8c0-0.2,0.3-0.4,0.5-0.4h12.3
					c0.5,0,1,0.2,1.4,0.6s0.6,0.8,0.6,1.4v5.5l0,0H688.4z"/>
				<path class="st7" d="M686.3,268.9H685c-0.1,0-0.2,0.1-0.2,0.2v2.1c0,0.1,0.1,0.2,0.2,0.2h2.2c0.1,0,0.2-0.1,0.2-0.2v-1.1
					C687.4,269.5,686.9,268.9,686.3,268.9L686.3,268.9z"/>
				<path class="st7" d="M675.3,268.9h-0.5c-0.1,0-0.2,0-0.2,0.2l-0.8,2.4c0,0.2,0,0.3,0,0.5v1.2c0,0.1,0.1,0.2,0.2,0.2h1.3
					c0.1,0,0.2-0.1,0.2-0.2v-4c0-0.1-0.1-0.2-0.2-0.2V268.9z"/>
				<path class="st7" d="M676.6,268.9h2.7c0,0,0.1,0,0.1,0.1v2.3c0,0,0,0.1-0.1,0.1h-2.7c0,0-0.1,0-0.1-0.1V269
					C676.5,269,676.5,268.9,676.6,268.9z"/>
				<path class="st7" d="M680.6,268.9h2.9c0,0,0.1,0,0.1,0.1v2.3c0,0,0,0.1-0.1,0.1h-2.9c0,0-0.1,0-0.1-0.1V269
					C680.5,269,680.5,268.9,680.6,268.9z"/>
			</g>
		</g>
	</g>
</g>
</svg>
