<?xml version="1.0" encoding="UTF-8"?>
<svg id="_レイヤー_2" data-name="レイヤー 2" xmlns="http://www.w3.org/2000/svg" xmlns:xlink="http://www.w3.org/1999/xlink" viewBox="0 0 359.6 127">
  <defs>
    <style>
      .cls-1 {
        fill: url(#_名称未設定グラデーション_30-4);
      }

      .cls-1, .cls-2, .cls-3, .cls-4, .cls-5, .cls-6, .cls-7, .cls-8, .cls-9, .cls-10, .cls-11, .cls-12, .cls-13, .cls-14, .cls-15, .cls-16, .cls-17 {
        stroke-width: 0px;
      }

      .cls-2 {
        fill: url(#_名称未設定グラデーション_30-3);
      }

      .cls-3 {
        fill: url(#_名称未設定グラデーション_30-5);
      }

      .cls-4 {
        fill: #f7ff50;
      }

      .cls-5 {
        fill: url(#_名称未設定グラデーション_30);
      }

      .cls-6 {
        fill: url(#_名称未設定グラデーション_30-7);
      }

      .cls-7 {
        fill: url(#_名称未設定グラデーション_23-7);
      }

      .cls-8 {
        fill: url(#_名称未設定グラデーション_23-5);
      }

      .cls-9 {
        fill: #fff;
      }

      .cls-10 {
        fill: url(#_名称未設定グラデーション_23-4);
      }

      .cls-11 {
        fill: url(#_名称未設定グラデーション_30-2);
      }

      .cls-12 {
        fill: url(#_名称未設定グラデーション_23-2);
      }

      .cls-13 {
        fill: url(#_名称未設定グラデーション_23-3);
      }

      .cls-14 {
        fill: url(#_名称未設定グラデーション_30-6);
      }

      .cls-15 {
        fill: url(#_名称未設定グラデーション_23-6);
      }

      .cls-16 {
        fill: url(#_名称未設定グラデーション_23);
      }

      .cls-17 {
        fill: url(#_名称未設定グラデーション_23-8);
      }
    </style>
    <linearGradient id="_名称未設定グラデーション_23" data-name="名称未設定グラデーション 23" x1="-3.78" y1="-77.42" x2="30.32" y2="-18.61" gradientTransform="translate(0 93.11)" gradientUnits="userSpaceOnUse">
      <stop offset="0" stop-color="#3fbde0"/>
      <stop offset="0" stop-color="#3fbcdf"/>
      <stop offset=".3" stop-color="#6d85de"/>
      <stop offset=".6" stop-color="#8f5edd"/>
      <stop offset=".9" stop-color="#a445dc"/>
      <stop offset="1" stop-color="#ac3ddc"/>
    </linearGradient>
    <linearGradient id="_名称未設定グラデーション_23-2" data-name="名称未設定グラデーション 23" x1="49.08" y1="-84.22" x2="81.59" y2="-27.99" xlink:href="#_名称未設定グラデーション_23"/>
    <linearGradient id="_名称未設定グラデーション_23-3" data-name="名称未設定グラデーション 23" x1="132.8" y1="-71.71" x2="151.01" y2="-40.18" xlink:href="#_名称未設定グラデーション_23"/>
    <linearGradient id="_名称未設定グラデーション_23-4" data-name="名称未設定グラデーション 23" x1="97.98" y1="-83.9" x2="130.29" y2="-27.88" xlink:href="#_名称未設定グラデーション_23"/>
    <linearGradient id="_名称未設定グラデーション_23-5" data-name="名称未設定グラデーション 23" x1="150.62" y1="-73.94" x2="169.32" y2="-41.54" xlink:href="#_名称未設定グラデーション_23"/>
    <linearGradient id="_名称未設定グラデーション_23-6" data-name="名称未設定グラデーション 23" x1="176.81" y1="-79.53" x2="199.72" y2="-39.81" xlink:href="#_名称未設定グラデーション_23"/>
    <linearGradient id="_名称未設定グラデーション_23-7" data-name="名称未設定グラデーション 23" x1="237.68" y1="-76.7" x2="247.48" y2="-59.7" xlink:href="#_名称未設定グラデーション_23"/>
    <linearGradient id="_名称未設定グラデーション_23-8" data-name="名称未設定グラデーション 23" x1="205.39" y1="-81.2" x2="222.79" y2="-51" xlink:href="#_名称未設定グラデーション_23"/>
    <linearGradient id="_名称未設定グラデーション_30" data-name="名称未設定グラデーション 30" x1="125.45" y1="-40.84" x2="138.85" y2="-17.64" gradientTransform="translate(0 93.11)" gradientUnits="userSpaceOnUse">
      <stop offset="0" stop-color="#ac3ddc"/>
      <stop offset="0" stop-color="#a445dc"/>
      <stop offset=".4" stop-color="#8f5edd"/>
      <stop offset=".7" stop-color="#6d85de"/>
      <stop offset="1" stop-color="#3fbcdf"/>
      <stop offset="1" stop-color="#3fbde0"/>
    </linearGradient>
    <linearGradient id="_名称未設定グラデーション_30-2" data-name="名称未設定グラデーション 30" x1="286.72" y1="-84.23" x2="319.12" y2="-28.03" xlink:href="#_名称未設定グラデーション_30"/>
    <linearGradient id="_名称未設定グラデーション_30-3" data-name="名称未設定グラデーション 30" x1="329.18" y1="-74.42" x2="357.08" y2="-26.12" xlink:href="#_名称未設定グラデーション_30"/>
    <linearGradient id="_名称未設定グラデーション_30-4" data-name="名称未設定グラデーション 30" x1="156.68" y1="-34.2" x2="165.88" y2="-18.2" xlink:href="#_名称未設定グラデーション_30"/>
    <linearGradient id="_名称未設定グラデーション_30-5" data-name="名称未設定グラデーション 30" x1="178.18" y1="-36.2" x2="188.49" y2="-18.29" xlink:href="#_名称未設定グラデーション_30"/>
    <linearGradient id="_名称未設定グラデーション_30-6" data-name="名称未設定グラデーション 30" x1="205.82" y1="-41.12" x2="216.92" y2="-21.82" xlink:href="#_名称未設定グラデーション_30"/>
    <linearGradient id="_名称未設定グラデーション_30-7" data-name="名称未設定グラデーション 30" x1="246.73" y1="-56.8" x2="264.43" y2="-26.1" xlink:href="#_名称未設定グラデーション_30"/>
  </defs>
  <g id="_レイヤー_2-2" data-name=" レイヤー 2">
    <g>
      <g>
        <path class="cls-16" d="M.7,71.3c-.5,0-.7,0-.7-.6v-1.8c0-.5.2-.6.7-.7h2.3c1.6-.3,1.7-.7,1.7-7.3V23.7c0-6.6,0-7.1-1.7-7.2H.7c-.5-.2-.7-.3-.7-.8v-1.8c0-.5.2-.6.7-.6h21.9c.5,0,.7,0,.7.6v1.8c0,.5-.2.7-.7.7h-3.8c-1.6.2-1.7.7-1.7,7.3v44h7.6c5.9,0,8.3-5.2,8.9-17.5,0-.5.2-.8.6-.8h2.1c.5,0,.6.3.6.8l-.9,20.4c0,.5,0,.8-.6.8H.7v-.1Z"/>
        <path class="cls-12" d="M83.2,16.5c-2.5.3-3.7,3.4-3.7,18.1v16.1c0,15.3-4.5,21.8-16.2,21.8s-17.5-7.5-17.5-19.2v-29.6c0-6.6,0-7.1-1.7-7.2h-2.3c-.5-.2-.7-.3-.7-.8v-1.8c0-.5.2-.6.7-.6h20.5c.5,0,.7,0,.7.6v1.8c0,.5-.2.6-.7.7h-2.3c-1.6.3-1.7.7-1.7,7.3v27.8c0,10.4,2.1,15.3,8.4,15.3s8.6-4.6,8.6-16.3v-15.9c0-14.7-.7-17.7-4.9-18.1h-1.6c-.5-.2-.7-.3-.7-.8v-1.8c0-.5.2-.6.7-.6h15.3c.5,0,.7,0,.7.6v1.8c0,.5-.2.6-.7.7h-.9v.1Z"/>
        <path class="cls-13" d="M129.2,33.7v11.9c0,.2.1.4.2.7,2.1,6.8,6.8,10.6,12.1,12.2V24c0-6.7.3-7.3,2-7.4l2.5-.2c.5,0,.7,0,.7-.6v-1.9c0-.2,0-.3-.1-.4-8.7,5-15.1,12.2-17.4,20.2h0Z"/>
        <path class="cls-10" d="M129.1,28.6h.2c2.9-6,8-11.2,14.4-15.3h-13.9c-.4,0-.8,0-.9.7l-10.2,40.7h-.2l-9.9-40.7c-.2-.6-.4-.7-.9-.7h-16.4c-.5,0-.7,0-.7.6v1.9c0,.5.2.6.7.6l2.6.2c1.6,0,1.9.7,1.9,7.4v26.1c0,14.6-1.4,17.9-4,18.1h-.8c-.5.2-.7.3-.7.8v1.8c0,.5.2.6.7.6h14.5c.5,0,.6,0,.6-.6v-1.8c0-.5,0-.7-.6-.7h-1.3c-3.3-.3-4.4-3.4-4.4-18.1v-21.8h.2l11,43.5c0,.5.3.6.7.6h5.8c.3,0,.6-.2.7-.6l8.6-34.1c.2-2.9.9-5.7,2.1-8.4l.2-.8h0Z"/>
        <path class="cls-8" d="M167.4,52.4V16.7h-12.5v7.2c.1,0,.1,34.4.1,34.4l5.4-1.8c2.7-1.1,4.9-2.5,7-4.1h0Z"/>
        <path class="cls-15" d="M186.3,50.1v-21.4h.2l10.4,20.8c4.5-.5,8.7-1.2,12.7-1.9l-16.6-33.6c-.2-.5-.4-.7-.9-.7h-14.4c-.5,0-.7,0-.7.6v1.9c0,.5.2.6.7.6l2.6.2c1.7,0,2,.7,2,7.4v26.8c1.4,0,2.8-.2,4.1-.3v-.4h-.1Z"/>
        <path class="cls-7" d="M250,15.8c4,0,6.3,2.7,7.5,7.6,1.9-2.3,3.6-4.7,5.2-7.3-3.4-2.6-7.5-3.9-12.4-3.9-13.7,0-22.4,12.7-22.5,30.8,5-1.7,9.5-3.7,13.5-6,.4-13.4,2.2-21.2,8.8-21.2h-.1Z"/>
        <path class="cls-17" d="M215.3,34.5c0-14.6,1.4-17.8,3.9-18.1h.9c.5-.2.7-.3.7-.8v-1.8c0-.5-.2-.6-.7-.6h-16.8c-.5,0-.6,0-.6.6v1.8c0,.5,0,.6.6.7h2.1c3.8.4,5.8,3.4,5.8,18.1v12.7c1.4-.3,2.8-.6,4.1-.9v-11.9h0v.2h0Z"/>
      </g>
      <g>
        <path class="cls-5" d="M129.2,50.1v10.8c0,6.6,0,7.1-1.7,7.2h-2.3c-.5,0-.7.3-.7.8v1.8c0,.5.2.6.7.6h20.5c.5,0,.6,0,.6-.6v-1.8c0-.5,0-.7-.6-.7h-2.3c-1.6-.3-1.8-.7-1.8-7.3v-1c-5-1.3-9.6-4.4-12.3-9.8h-.1Z"/>
        <g>
          <path class="cls-11" d="M320.8,16.5c-2.5.3-3.7,3.4-3.7,18.1v16.1c0,15.3-4.5,21.8-16.2,21.8s-17.5-7.5-17.5-19.2v-29.6c0-6.6,0-7.1-1.7-7.2h-2.3c-.5-.2-.7-.3-.7-.8v-1.8c0-.5.2-.6.7-.6h20.5c.5,0,.7,0,.7.6v1.8c0,.5-.2.6-.7.7h-2.3c-1.6.3-1.7.7-1.7,7.3v27.8c0,10.4,2.1,15.3,8.4,15.3s8.6-4.6,8.6-16.3v-15.9c0-14.7-.7-17.7-4.9-18.1h-1.6c-.5-.2-.7-.3-.7-.8v-1.8c0-.5.2-.6.7-.6h15.3c.5,0,.7,0,.7.6v1.8c0,.5-.2.6-.7.7h-.9v.1Z"/>
          <path class="cls-2" d="M342.4,72.5c-3.6,0-7.3-.9-10.2-2.5l-.2,1c0,.5-.2.8-.8.8h-1.3c-.6,0-.7-.3-.7-.8l-.9-18.6c0-.5,0-.8.6-.8h2.1c.4,0,.5.2.6.7l.2,2.2c.4,7.5,4.3,14.4,10.6,14.4s7.3-2.8,7.3-8-4-10.3-10.3-15c-5.3-4-10-8.3-10-17.2s5.6-16.5,15.4-16.5,6.5,1.1,8.6,2.5l.2-1c0-.5.3-.8.9-.8h1.2c.7,0,.8.3.8.8v17.3c0,.5,0,.8-.7.8h-2.1c-.4,0-.5-.3-.5-.8v-1.1c-.5-7.7-3.5-14.2-8.7-14.2s-5.7,2.7-5.7,7,4,9.5,9.5,13.7c6,4.5,11.3,8.9,11.3,18.7s-7.3,17.5-17.2,17.5h0v-.1Z"/>
          <path class="cls-1" d="M171.4,68.5h-2.3c-1.6-.3-1.7-.7-1.7-7.3v-7.1c-2.1,1.6-4.4,2.9-7.2,4.1l-5.2,1.7v1.3c0,6.6,0,7.1-1.7,7.2h-2.3c-.5.2-.7.3-.7.8v1.8c0,.5.2.6.7.6h20.5c.5,0,.7,0,.7-.6v-1.8c0-.5-.2-.6-.7-.7h-.1,0Z"/>
          <path class="cls-3" d="M178.1,68.2h-.9c-.5.2-.7.3-.7.8v1.8c0,.5.2.6.7.6h16.9c.5,0,.7,0,.7-.6v-1.8c0-.5-.2-.7-.7-.7h-2.1c-3.2-.3-5.1-2.5-5.6-12.1l-4.3-1.5c-.3,10.8-1.7,13.4-4,13.5h0Z"/>
          <path class="cls-14" d="M208.1,71.9c.3.4.4.6.8.6h5.8c.5,0,.7-.2.7-.6v-19.3c-4.8,1.1-9.9,2.1-15.4,3l8.2,16.4h-.1v-.1Z"/>
          <path class="cls-6" d="M258.7,34.1c0,2.3.1,4.7.1,7.4,0,17.2-1.2,27.4-8.9,27.4s-8.7-9.5-8.8-24.4c-4,1.7-8.3,3.3-13.1,4.7,1.6,14.5,9.4,23.3,21.7,23.3s22.5-12.9,22.5-31.2-1.2-13-3.6-17.6c-2.8,3.8-6.1,7.3-10,10.4h.1Z"/>
        </g>
      </g>
      <g>
        <path class="cls-4" d="M146.6,13.5c2.3-1.3,4.7-2.5,7.3-3.5.1,0,.3,0,.4-.1,3.4-1.1,6.4.6,7.4,3.9l2-.6c-1-3.2.5-6,4.2-7.1l-.7-2.2c-3.6,1.2-6.4.3-7.7-3.9l-2.3.7c1.3,4.2-.9,6.7-4.2,7.9-3.4,1.3-6.5,2.9-9.4,4.7h2.4c.3,0,.5,0,.6.2h0Z"/>
        <path class="cls-4" d="M129.2,33.7v-5.1h0c-.1.3-.2.5-.4.8l-2.1,8.4c-.2,2.9.1,5.9,1.1,8.9.4,1.2.9,2.4,1.4,3.5v-4.5c-1.1-4-1.1-8.1,0-11.9h0v-.1Z"/>
        <path class="cls-4" d="M176.3,45.4l-1-1c-2.5,3.1-5,5.8-7.9,8v1.7c3.3-2.4,6-5.3,8.9-8.7h0Z"/>
        <path class="cls-4" d="M154.8,58.4c-4.3,1.1-9.1,1.2-13.3,0v1.5c4.3,1.1,8.9,1,13.2,0h.3v-1.6h-.2v.1Z"/>
        <path class="cls-4" d="M129.4,46.2c0-.2-.1-.4-.2-.7v4.5c2.8,5.5,7.3,8.5,12.3,9.8v-1.5c-5.4-1.6-10-5.4-12.1-12.2h0v.1Z"/>
        <path class="cls-4" d="M129.2,28.6h0v5.1c2.2-8,8.6-15.2,17.4-20.2-.1-.1-.3-.2-.6-.2h-2.4c-6.4,4.1-11.5,9.3-14.4,15.3h0Z"/>
        <path class="cls-4" d="M167.4,54.1v-1.7c-2.1,1.6-4.3,3-7,4.1l-5.4,1.8v1.5l5.2-1.7c2.7-1.2,5.1-2.5,7.2-4.1h0v.1Z"/>
      </g>
      <g>
        <path class="cls-9" d="M50.4,84.9h-1c-.7,0-1.1.2-1.1.7v36.6c.1.4.4.7.8.7h.9v1.9h-10.9v-1.9h1.1c.4,0,.6-.2.7-.5v-30.7l-11.3,30.1h-6l-11.2-30v30.1c0,.7.3,1,.9,1h.9v1.9H3.3v-1.9h1.1c.5,0,.7-.3.7-.9v-36.3c0-.3-.1-.5-.4-.6s-.6-.2-.7-.2h-1v-1.8h12.2l11.5,29.8,11.3-29.7h12.5v1.8l-.1-.1Z"/>
        <path class="cls-9" d="M68.7,85.1h-.9c-.5,0-.8.3-.8,1,0,2.7,0,5.1-.1,7.3,0,2.2-.1,7.8-.1,16.7s.9,5.7,2.7,7.1c1.8,1.5,4.9,2.2,9.4,2.2s7.3-.8,9.1-2.5c1.5-1.5,2.3-3.8,2.3-7.1v-24.3c0-.4-.3-.6-.8-.6h-1.1v-1.8h11.2v1.9h-1c-.5,0-.8.3-.8,1v7.7c0-3.9,0,2.1,0,17.9s-6.3,14.7-18.9,14.7-19.8-4.7-19.8-14v-26.9c-.1-.3-.3-.4-.6-.4h-1.1v-1.8h11.3v1.9h0Z"/>
        <path class="cls-9" d="M123.7,126.3c-2.8,0-5.7-.4-8.6-1.3-3.1-.9-5.5-2.1-7.3-3.4h-.3c-.3,0-.6.3-1,1l-1.2-.7,5-8.4,1.5.8c-.4,1-.4,1.6,0,1.9l1.3,1c1.5.9,3.4,1.7,5.7,2.2,1.9.4,3.6.6,5,.6,2.8,0,4.8-.3,6-.8,2.1-.8,3.3-2.2,3.7-4.4.1-.9,0-1.8-.4-2.8-.6-1.3-1.5-2.2-2.8-2.7-1.6-.7-3.8-1.4-6.6-2-3.5-.8-5.8-1.4-6.7-1.7-3.1-.9-5.4-2.2-6.8-3.8-1.4-1.6-2.1-4-2.1-7.3s1.6-7.4,4.9-9.6c2.9-1.9,7.1-2.8,12.6-2.7,4.6,0,8.7,1.2,12.2,3.3.4,0,.7,0,.9-.5l.3-.5,1.5.9-4.8,8.5-1.3-.7c.4-.8.5-1.3.3-1.5-.1-.1-.3-.3-.5-.4l-1.5-.9c-2.3-1.3-4.7-2-7.3-2-6.3,0-9.6,1.8-9.8,5.2-.2,2.8,1,4.6,3.6,5.5,2.3.8,4.9,1.5,7.9,2.1,1.6.4,2.9.7,3.7.9,1.4.4,2.6.8,3.6,1.2,2.3,1,4.1,2.7,5.2,4.9,1,1.9,1.5,3.9,1.5,6.1,0,8-5.7,12-17.1,12h-.3Z"/>
        <path class="cls-9" d="M146.6,124.8v-5.5h4.5v-30.6h-4.4v-5.5h16.5v5.5h-4.3v30.6h4.3v5.5h-16.6Z"/>
        <path class="cls-9" d="M205.8,123.4c-3.6,2.4-9,3.6-16.2,3.6s-12.2-2-15.6-6.1c-3.2-3.8-4.8-9.2-4.6-16.1.3-14.8,7.5-22.3,21.7-22.3,4.9,0,9.3.7,13.1,2.2h.1c.4.2,1,.5,1.7.9.4.1.7,0,1-.6l.3-.6,1.5.8-4,9-1.3-.6c.4-.8.4-1.3,0-1.6l-.8-.4c-3.8-2-7.3-3.1-10.7-3.1-4.8,0-8.3,1.1-10.7,3.4-2.7,2.6-4.1,6.8-4.2,12.5-.2,10.8,4.4,16.2,13.7,16.2s8.7-1,11.8-3.1h0l1-.8c.1-.1.4-.4.9-.8.1-.2.1-.5-.1-.9l-.3-.5,1.5-.8,5,8.4-1.5.9c-.4-.7-.7-1.1-1-1.1s-.4,0-.7.3l-1.5,1.1h0l-.1.1Z"/>
      </g>
      <g>
        <path class="cls-9" d="M240.5,83.3h31.2c.4,0,.7-.4.7-1v-.7h1.7v9.4h-1.4c0-.9-.3-1.4-.8-1.5h-23.7v11.6h21.9c.6,0,.9-.3.9-1v-.6h1.7v9.3h-1.4c0-1-.4-1.5-1.1-1.5h-22v15c.1.5.5.8,1.1.8h.8v1.8h-11.9v-1.8h1.1c.8,0,1.2-.3,1.2-.8v-37c-.2-.4-.6-.5-1.1-.5h-1.1v-1.7h2.2v.2Z"/>
        <path class="cls-9" d="M279.6,124.9v-1.6h1c.7,0,1.1-.6,1.1-1.8v-36c-.1-.4-.5-.6-1.2-.6h-1v-1.8h33.2c.7,0,1-.4,1-1.1v-.7h1.9v9.4h-1.6v-1.2c-.1-.3-.4-.4-.9-.4h-23.8v11.8h20.5c.7,0,1-.4,1-1.1v-.7h1.9v9.4h-1.6v-1.2c-.1-.3-.5-.4-1-.4h-20.6v12.1h24.6c.5,0,.8-.4.8-1.1v-.7h1.8v9.4h-1.6c0-.9-.2-1.5-.5-1.6h-34.5l-.5-.1Z"/>
        <path class="cls-9" d="M339.1,126.3c-2.8,0-5.7-.4-8.6-1.3-3.1-.9-5.5-2.1-7.3-3.4h-.3c-.3,0-.6.3-1,1l-1.2-.7,5-8.4,1.5.8c-.4,1-.4,1.6,0,1.9l1.3,1c1.5.9,3.4,1.7,5.7,2.2,1.9.4,3.6.6,5,.6,2.8,0,4.8-.3,6-.8,2.1-.8,3.3-2.2,3.7-4.4.1-.9,0-1.8-.4-2.8-.6-1.3-1.5-2.2-2.8-2.7-1.6-.7-3.8-1.4-6.6-2-3.5-.8-5.8-1.4-6.7-1.7-3.1-.9-5.4-2.2-6.8-3.8-1.4-1.6-2.1-4-2.1-7.3s1.6-7.4,4.9-9.6c2.9-1.9,7.1-2.8,12.6-2.7,4.6,0,8.7,1.2,12.2,3.3.4,0,.7,0,.9-.5l.3-.5,1.5.9-4.8,8.5-1.3-.7c.4-.8.5-1.3.3-1.5-.1-.1-.3-.3-.5-.4l-1.5-.9c-2.3-1.3-4.7-2-7.3-2-6.3,0-9.6,1.8-9.8,5.2-.2,2.8,1,4.6,3.6,5.5,2.3.8,4.9,1.5,7.9,2.1,1.6.4,2.9.7,3.7.9,1.4.4,2.6.8,3.6,1.2,2.3,1,4.1,2.7,5.2,4.9,1,1.9,1.5,3.9,1.5,6.1,0,8-5.7,12-17.1,12h-.3Z"/>
      </g>
    </g>
  </g>
</svg>