<!--?xml version="1.0" encoding="utf-8"?-->
<!-- Generator: Adobe Illustrator 18.0.0, SVG Export Plug-In . SVG Version: 6.00 Build 0)  -->

<svg version="1.1" id="_x32_" xmlns="http://www.w3.org/2000/svg" xmlns:xlink="http://www.w3.org/1999/xlink" x="0px" y="0px" viewBox="0 0 512 512" style="width: 256px; height: 256px; opacity: 1;" xml:space="preserve">
<style type="text/css">
	.st0{fill:#4B4B4B;}
</style>
<g>
	<path class="st0" d="M435.133,160.859v21.559h-21.592v-21.559H0v190.281h412.121h1.26l0,0h0.16v-21.558h21.592v21.27l-0.002,0.129
		h0.002v0.16H512v-52.355c-23.629,0-42.785-19.156-42.785-42.785c0-23.629,19.156-42.785,42.785-42.785v-52.356H435.133z
		 M435.131,307.496h-21.59v-39.562h21.592v39.48L435.131,307.496z M435.131,244.067h-21.59v-39.562h21.592v39.48L435.131,244.067z
		 M360.82,230.414v63.805v0.031h-19.944v-63.48v-0.196l0,0v-0.16h-18.756v-19.391h57.455v19.391H360.82z M284.387,230.414v12.203
		h28.336v19.39h-28.336v12.852h33.277v19.391h-53.219v-83.227h53.219v19.391H284.387z M238.291,294.25l-17.147-32.688l-5.83,7.504
		v25.184h-19.941v-83.227h19.941V226.5l-0.127,12.184l0.127-0.168v0.266l20.873-27.758h15.303l9.176,0.098l-26.232,33.871
		l18.223,33.27l8.668,15.988H238.291z M187.693,240.731h-20.144l-0.535-2.293c-0.621-2.672-1.709-4.875-3.238-6.551
		c-1.304-1.43-3.228-2.125-5.877-2.125c-1.492,0-2.808,0.27-3.918,0.797c-1.109,0.531-2.043,1.25-2.766,2.137
		c-0.502,0.594-0.914,1.266-1.236,2.008c-0.344,0.793-0.629,1.879-0.857,3.226c-0.252,1.504-0.44,3.406-0.566,5.703
		c-0.137,2.383-0.196,5.383-0.196,9.008c0,3.625,0.059,6.625,0.196,9.004c0.127,2.297,0.314,4.199,0.566,5.703
		c0.228,1.348,0.514,2.43,0.857,3.226c0.322,0.746,0.73,1.41,1.207,1.977c0.748,0.91,1.686,1.637,2.799,2.164
		c1.098,0.531,2.414,0.801,3.914,0.801c2.66,0,4.606-0.703,5.949-2.148c1.547-1.664,2.644-3.863,3.268-6.528l0.535-2.293h17.361
		l2.696,0.027l-0.568,3.422c-1.453,8.77-4.854,15.512-10.11,20.051c-5.27,4.551-11.707,6.856-19.131,6.856
		c-4.566,0-8.642-0.801-12.119-2.383c-3.432-1.57-6.553-3.82-9.279-6.68c-2.041-2.191-3.629-4.504-4.734-6.879
		c-1.078-2.32-1.865-4.883-2.346-7.629c-0.459-2.613-0.744-5.508-0.846-8.606c-0.106-2.996-0.16-6.359-0.16-10.086
		c0-3.726,0.055-7.094,0.16-10.09c0.101-3.102,0.386-6,0.85-8.61c0.476-2.738,1.264-5.308,2.35-7.633
		c1.094-2.363,2.678-4.672,4.699-6.848c2.754-2.887,5.879-5.137,9.306-6.699c3.473-1.586,7.551-2.387,12.119-2.387
		c7.42,0,13.858,2.305,19.131,6.856c5.256,4.535,8.656,11.281,10.11,20.051l0.516,3.113L187.693,240.731z M120.022,294.25h-19.94
		v-83.227h19.942v82.879L120.022,294.25z M73.84,230.414v63.805v0.031H53.894v-63.289l0.002-0.387h-0.002v-0.16H35.141v-19.391
		h57.455v19.391H73.84z" style="fill: rgb(26, 26, 46);"></path>
</g>
</svg>
