<?xml version="1.0" encoding="utf-8"?>
<!-- Generator: Adobe Illustrator 28.1.0, SVG Export Plug-In . SVG Version: 6.00 Build 0)  -->
<svg version="1.1" id="_x32_" xmlns="http://www.w3.org/2000/svg" xmlns:xlink="http://www.w3.org/1999/xlink" x="0px" y="0px"
	 viewBox="0 0 512 512" style="enable-background:new 0 0 512 512;" xml:space="preserve">
<style type="text/css">
	.st0{fill:#1A1A2E;}
</style>
<g>
	<path class="st0" d="M451.6,98.4H60.4C27.1,98.4,0,125.5,0,158.8v56v17.9l17.7,2.5c10.3,1.5,18,10.4,18,20.7
		c0,10.3-7.7,19.3-18,20.7L0,279.3v17.9v56c0,33.3,27.1,60.4,60.4,60.4h391.2c33.3,0,60.4-27.1,60.4-60.4v-55.6v-19.7l-19.7-0.9
		c-11.2-0.5-20-9.7-20-20.9c0-11.2,8.8-20.4,20-20.9l19.7-0.9v-19.7v-55.6C512,125.5,484.9,98.4,451.6,98.4z M491.3,214.4
		c-22.1,1-39.7,19.2-39.7,41.6c0,22.3,17.6,40.5,39.7,41.6v55.6c0,21.9-17.8,39.7-39.8,39.7H60.4c-22,0-39.8-17.8-39.8-39.7v-56
		c20.2-2.9,35.7-20.2,35.7-41.2c0-21-15.5-38.3-35.7-41.2v-56c0-22,17.8-39.8,39.8-39.8h391.2c22,0,39.8,17.8,39.8,39.8L491.3,214.4
		L491.3,214.4z"/>
</g>
</svg>
