<?xml version="1.0" encoding="UTF-8"?>
<svg id="_レイヤー_2" xmlns="http://www.w3.org/2000/svg" version="1.1" viewBox="0 0 198.4 87.9">
  <!-- Generator: Adobe Illustrator 29.8.1, SVG Export Plug-In . SVG Version: 2.1.1 Build 2)  -->
  <defs>
    <style>
      .st0 {
        fill: none;
        stroke: #555;
        stroke-linecap: round;
        stroke-linejoin: round;
        stroke-width: 5.2px;
      }
    </style>
  </defs>
  <g id="icon">
    <g>
      <g>
        <path class="st0" d="M49.5,75.8V26.3c0-13.7,11.1-24.8,24.8-24.8h0c13.7,0,24.8,11.1,24.8,24.8v49.6c0,5.9-4.8,10.6-10.6,10.6h-28.4c-5.9,0-10.6-4.8-10.6-10.6h0Z"/>
        <path class="st0" d="M99.2,75.8V26.3c0-13.7,11.1-24.8,24.8-24.8h0c13.7,0,24.8,11.1,24.8,24.8v49.6c0,5.9-4.8,10.6-10.6,10.6h-28.4c-5.9,0-10.6-4.8-10.6-10.6h0Z"/>
        <path class="st0" d="M157.3,81.4h22c5.4,0,9.8-4.2,9.8-9.4V28.4c0-12.1-10.2-21.9-22.8-21.9s-8.9,1.3-12.5,3.6"/>
        <path class="st0" d="M41.1,81.4h-22c-5.4,0-9.8-4.2-9.8-9.4V28.4c0-12.1,10.2-21.9,22.8-21.9s8.9,1.3,12.5,3.6"/>
      </g>
      <g>
        <rect class="st0" x="115.5" y="37.1" width="17.2" height="21"/>
        <rect class="st0" x="65.8" y="37.1" width="17.2" height="21"/>
        <rect class="st0" x="22.2" y="38.3" width="15.2" height="18.5"/>
        <rect class="st0" x="161.7" y="38.3" width="15.2" height="18.5"/>
        <line class="st0" x1="65.8" y1="47.6" x2="37.4" y2="47.6"/>
        <line class="st0" x1="161.7" y1="47.6" x2="132.7" y2="47.6"/>
        <line class="st0" x1="115.5" y1="47.6" x2="83" y2="47.6"/>
      </g>
    </g>
  </g>
</svg>