<?xml version="1.0" encoding="UTF-8"?>
<svg id="_レイヤー_2" xmlns="http://www.w3.org/2000/svg" version="1.1" viewBox="0 0 173.9 154.5">
  <!-- Generator: Adobe Illustrator 29.8.1, SVG Export Plug-In . SVG Version: 2.1.1 Build 2)  -->
  <defs>
    <style>
      .st0 {
        fill: none;
        stroke: #555;
        stroke-linecap: round;
        stroke-linejoin: round;
        stroke-width: 4.3px;
      }

      .st1 {
        fill: #555;
      }
    </style>
  </defs>
  <g id="icon">
    <g>
      <path class="st0" d="M68,28.2c5.9-2,12.3-3.2,19-3.2,27.8,0,51,19.5,56.7,45.6,8.7,1.4,15.4,8.4,15.4,16.8s-8.1,16.8-18.1,17.1c-8.5,21.4-29.5,36.6-53.9,36.6s-45.4-15.2-53.9-36.6c-10-.2-18.1-7.8-18.1-17.1s6.6-15.4,15.4-16.8c3-13.8,10.9-25.7,21.8-33.9"/>
      <path class="st0" d="M86.4,125.2c14.8,0,21.7-12.3,16.7-15-2.1-1.1-30.8-1.1-33,0-5.1,2.7,1.9,15,16.7,15"/>
      <g>
        <path class="st1" d="M53.9,88.2c0-2.9,2.3-5.2,5.2-5.2s5.2,2.3,5.2,5.2-2.3,5.2-5.2,5.2-5.2-2.3-5.2-5.2Z"/>
        <circle class="st1" cx="114.9" cy="88.2" r="5.2"/>
      </g>
      <path class="st0" d="M61.6,13.5c-7.5,23.9,6.4,42.5,21.4,50"/>
      <path class="st0" d="M89.6,39.5c3.3,12.7,17.8,21,29.8,21.7"/>
    </g>
  </g>
</svg>