<?xml version="1.0" encoding="UTF-8"?>
<svg id="_レイヤー_2" xmlns="http://www.w3.org/2000/svg" version="1.1" viewBox="0 0 154.2 154.7">
  <!-- Generator: Adobe Illustrator 29.8.1, SVG Export Plug-In . SVG Version: 2.1.1 Build 2)  -->
  <defs>
    <style>
      .st0 {
        fill: none;
        stroke: #555;
        stroke-linecap: round;
        stroke-linejoin: round;
        stroke-width: 4.3px;
      }
    </style>
  </defs>
  <g id="icon">
    <g>
      <g>
        <path class="st0" d="M89,130.1c-2.1,4.5-4.3,8-6.4,9.8-3.1,2.6-8.6.9-8.6-3.2,0-9.4-.5-21.3-1-25.5-.8-6.6-2.3-8.9-8.4-9.3-6.1.4-7.6,2.7-8.4,9.3-.5,4.1-1,16.1-1,25.5s-5.5,5.8-8.6,3.2c-8-6.9-17.6-40.3-21.7-57.4-.5-2-1.2-3.8-2.3-5.5-7-11.3-15.9-41.7-1.2-55.5,14.3-13.4,30.1-5.9,43.2-5.1,13.1-.8,29-8.3,43.2,5.1,11.9,11.2,8.3,33.3,2.8,47.3"/>
        <path class="st0" d="M45.4,29.2c9.6,0,14.3,4.8,19.3,4.8s9.7-4.8,19.3-4.8"/>
      </g>
      <g>
        <polyline class="st0" points="122.5 113.7 140.7 131.8 134.3 138.2 116.4 120.3"/>
        <path class="st0" d="M87.4,100.5c0-8.8,6.9-15.9,15.4-15.9"/>
        <path class="st0" d="M126.3,100.5c0,4.9-1.4,9.4-3.8,13.2,0,.1-.2.3-.3.4-1.5,2.3-3.4,4.3-5.5,5.9-.1,0-.2.2-.3.2-3.8,2.8-8.6,4.5-13.6,4.5-13,0-23.5-10.8-23.5-24.2s10.5-24.2,23.5-24.2,23.5,10.8,23.5,24.2Z"/>
      </g>
    </g>
  </g>
</svg>