<?xml version="1.0" encoding="UTF-8"?>
<svg id="_レイヤー_2" xmlns="http://www.w3.org/2000/svg" version="1.1" viewBox="0 0 114.7 174">
  <!-- Generator: Adobe Illustrator 29.8.1, SVG Export Plug-In . SVG Version: 2.1.1 Build 2)  -->
  <defs>
    <style>
      .st0 {
        fill: none;
        stroke: #555;
        stroke-linecap: round;
        stroke-linejoin: round;
        stroke-width: 4.6px;
      }
    </style>
  </defs>
  <g id="icon">
    <g>
      <path class="st0" d="M63.3,63.7c12.7-2.2,23.1-11.1,27.3-23,3.2,1.2,6.3,3.1,9.4,6,14.5,13.7,5.8,43.7-1.2,54.9-1.1,1.7-1.8,3.5-2.3,5.5-4.1,16.9-13.5,50-21.5,56.8-3,2.6-8.5.9-8.5-3.1,0-9.3-.5-21.1-1-25.2-.8-6.5-2.3-8.8-8.3-9.2-6.1.4-7.6,2.7-8.3,9.2-.5,4.1-1,15.9-1,25.2s-5.4,5.7-8.5,3.1c-8-6.8-17.4-39.8-21.5-56.8-.5-1.9-1.2-3.8-2.3-5.5-7-11.2-15.7-41.2-1.2-54.9,3.1-2.9,6.2-4.8,9.4-6,3.5,9.7,11.1,17.5,20.8,21.2"/>
      <g>
        <line class="st0" x1="59.2" y1="40.9" x2="46.5" y2="95"/>
        <polyline class="st0" points="75 9.1 67.1 42.7 51.7 39.1 58.8 9.1"/>
        <line class="st0" x1="54.6" y1="27" x2="69.9" y2="30.7"/>
      </g>
    </g>
  </g>
</svg>