<?xml version="1.0" encoding="UTF-8"?>
<svg id="_レイヤー_2" data-name="レイヤー 2" xmlns="http://www.w3.org/2000/svg" viewBox="0 0 161 123">
  <defs>
    <style>
      .cls-1 {
        fill: none;
        stroke: #555;
        stroke-linecap: round;
        stroke-linejoin: round;
        stroke-width: 5px;
      }
    </style>
  </defs>
  <g id="icon">
    <g>
      <g>
        <path class="cls-1" d="M14.72,41.78c-7.04-1.56-12.22-6.89-12.22-13.21C2.5,14.18,16.6,2.5,33.99,2.5h93.02c17.39,0,31.49,11.68,31.49,26.08,0,3.78-1.85,7.2-4.84,9.67-2.02,1.68-4.57,2.92-7.42,3.54"/>
        <g>
          <path class="cls-1" d="M33.98,33.4v15c0,2.58-2.26,4.66-5.07,4.66h-9.13c-2.8,0-5.07-2.08-5.07-4.66v-15c0-4.89,4.31-8.86,9.63-8.86,2.66,0,5.07.99,6.81,2.59,1.74,1.61,2.82,3.82,2.82,6.27Z"/>
          <path class="cls-1" d="M56.07,34.69v17.99c0,2.47-2.18,4.47-4.86,4.47h-12.37c-2.68,0-4.86-2-4.86-4.47v-17.99c0-5.61,4.94-10.16,11.04-10.16,3.05,0,5.81,1.14,7.81,2.97,2,1.84,3.23,4.38,3.23,7.18Z"/>
          <path class="cls-1" d="M80.45,54.43c0,.16,0,.32.03.48,0,0,0,.02,0,.03-.28,2.83-2.87,5.05-6.01,5.05h-12.37c-3.33,0-6.03-2.49-6.03-5.55v-18.65c0-6.21,5.47-11.24,12.22-11.24,3.37,0,6.43,1.26,8.64,3.29,2.06,1.88,3.38,4.43,3.56,7.28,0,0,0,.02,0,.03-.02.22-.03.42-.03.64v18.65Z"/>
          <path class="cls-1" d="M104.89,35.78v18.65c0,3.06-2.7,5.55-6.03,5.55h-12.36c-3.16,0-5.74-2.22-6.01-5.05,0,0,0-.02,0-.03,0-.16.02-.32.02-.48v-18.65c0-.22,0-.42-.02-.64,0,0,0-.02,0-.03.17-2.83,1.5-5.39,3.55-7.28,2.21-2.03,5.26-3.29,8.64-3.29,6.75,0,12.22,5.03,12.22,11.24Z"/>
          <path class="cls-1" d="M126.97,34.69v17.99c0,2.47-2.18,4.47-4.86,4.47h-12.36c-2.69,0-4.87-2-4.87-4.47v-17.99c0-2.8,1.24-5.34,3.23-7.18,2-1.83,4.76-2.97,7.81-2.97,6.1,0,11.04,4.55,11.04,10.16Z"/>
          <path class="cls-1" d="M146.24,33.4v15c0,2.58-2.26,4.66-5.07,4.66h-9.13c-2.8,0-5.07-2.08-5.07-4.66v-15c0-2.45,1.08-4.66,2.82-6.27,1.75-1.6,4.15-2.59,6.81-2.59,5.32,0,9.63,3.97,9.63,8.86Z"/>
        </g>
      </g>
      <g>
        <path class="cls-1" d="M143.85,81.22c2.71.63,5.12,1.87,7.04,3.53,2.86,2.47,4.63,5.89,4.63,9.67,0,14.4-13.47,26.08-30.08,26.08H36.59c-16.61,0-30.07-11.68-30.07-26.08,0-6.33,4.96-11.66,11.71-13.22"/>
        <g>
          <path class="cls-1" d="M81.01,93.68c0,.17,0,.35.02.53-.3,5.38-5.32,9.66-11.46,9.66h-.37c-6.34,0-11.48-4.56-11.48-10.19v-14.17c0-2.78,2.54-5.04,5.68-5.04h11.98c3.01,0,5.46,2.07,5.66,4.69-.02.11-.02.23-.02.35v14.17Z"/>
          <path class="cls-1" d="M81.05,79.51v14.17c0,.17,0,.35-.02.53,0-.17-.02-.35-.02-.53v-14.17c0-.11,0-.23.02-.35.02.11.02.23.02.35Z"/>
          <path class="cls-1" d="M57.72,78.53v13.84c0,5.09-4.65,9.21-10.39,9.21h-.32c-5.74,0-10.38-4.12-10.38-9.21v-13.84c0-2.25,2.05-4.06,4.57-4.06h11.95c2.52,0,4.58,1.82,4.58,4.06Z"/>
          <path class="cls-1" d="M36.62,76.99v9.74c0,4.44-4.06,8.04-9.07,8.04h-.28c-5.01,0-9.06-3.6-9.06-8.04v-9.74c0-2.34,2.13-4.24,4.76-4.24h8.87c2.64,0,4.77,1.89,4.77,4.24Z"/>
          <path class="cls-1" d="M104.35,79.51v14.17c0,5.63-5.14,10.19-11.48,10.19h-.37c-6.15,0-11.16-4.29-11.46-9.66,0-.17.02-.35.02-.53v-14.17c0-.11,0-.23-.02-.35.19-2.62,2.65-4.69,5.66-4.69h11.98c3.14,0,5.68,2.26,5.68,5.04Z"/>
          <path class="cls-1" d="M81.05,79.51v14.17c0,.17,0,.35-.02.53,0-.17-.02-.35-.02-.53v-14.17c0-.11,0-.23.02-.35.02.11.02.23.02.35Z"/>
          <path class="cls-1" d="M125.44,78.53v13.84c0,5.09-4.65,9.21-10.38,9.21h-.32c-5.74,0-10.39-4.12-10.39-9.21v-13.84c0-2.25,2.05-4.06,4.58-4.06h11.95c2.52,0,4.57,1.82,4.57,4.06Z"/>
          <path class="cls-1" d="M143.85,76.99v9.74c0,4.44-4.05,8.04-9.06,8.04h-.28c-5.01,0-9.07-3.6-9.07-8.04v-9.74c0-2.34,2.13-4.24,4.77-4.24h8.87c2.63,0,4.76,1.89,4.76,4.24Z"/>
        </g>
      </g>
    </g>
  </g>
</svg>