<?xml version="1.0" encoding="UTF-8"?>
<svg id="_レイヤー_2" xmlns="http://www.w3.org/2000/svg" version="1.1" viewBox="0 0 181 154.7">
  <!-- Generator: Adobe Illustrator 29.8.1, SVG Export Plug-In . SVG Version: 2.1.1 Build 2)  -->
  <defs>
    <style>
      .st0, .st1 {
        fill: none;
        stroke: #555;
        stroke-linejoin: round;
        stroke-width: 4.7px;
      }

      .st1 {
        stroke-linecap: round;
      }
    </style>
  </defs>
  <g id="icon">
    <g>
      <path class="st1" d="M137,75.5c-.3.5-.5.9-.8,1.4-1.2,1.9-2,4-2.6,6.1-4.6,19-15.2,56.1-24.2,63.8-3.4,2.9-9.5,1-9.5-3.5,0-10.5-.6-23.7-1.1-28.3-.9-7.3-2.5-9.9-9.3-10.4-6.8.4-8.5,3-9.3,10.4-.5,4.6-1.1,17.8-1.1,28.3s-6.1,6.4-9.5,3.5c-8.9-7.6-19.5-44.7-24.2-63.8-.5-2.2-1.4-4.2-2.6-6.1-7.8-12.6-17.7-46.3-1.4-61.6,15.8-14.8,33.4-6.6,48-5.7,14.6-.9,32.2-9.2,48,5.7,0,0,0,0,0,0"/>
      <path class="st1" d="M68,23.9c10.7,0,15.9,5.4,21.5,5.4s10.7-5.4,21.5-5.4"/>
      <path class="st0" d="M173.8,43.7l-6.8,2c-9.3,2.7-16.6,10.1-19.4,19.4l-2,6.8-1.7-6.7c-.3-1.2-.7-2.5-1.2-3.6-3-7.4-9.4-12.9-17.3-14.9l-6.7-1.7,6.8-2c8.5-2.5,15.4-8.9,18.6-17.1.3-.7.5-1.5.8-2.3l2-6.8,1.7,6.7c2.3,9.1,9.3,16.2,18.5,18.5l6.7,1.7h0Z"/>
      <path class="st0" d="M7.2,112.7l4.4-1.2c6.1-1.7,10.9-6.4,12.5-12.5l1.2-4.4,1.2,4.4c1.7,6.1,6.4,10.9,12.5,12.5l4.4,1.2-4.4,1.2c-6.1,1.7-10.9,6.4-12.5,12.5l-1.2,4.4-1.2-4.4c-1.7-6.1-6.4-10.9-12.5-12.5,0,0-4.4-1.2-4.4-1.2Z"/>
    </g>
  </g>
</svg>