<?xml version="1.0" encoding="UTF-8"?>
<svg id="_レイヤー_2" xmlns="http://www.w3.org/2000/svg" version="1.1" viewBox="0 0 210.3 136">
  <!-- Generator: Adobe Illustrator 29.8.1, SVG Export Plug-In . SVG Version: 2.1.1 Build 2)  -->
  <defs>
    <style>
      .st0 {
        fill: none;
        stroke: #555;
        stroke-linecap: round;
        stroke-linejoin: round;
        stroke-width: 5.9px;
      }
    </style>
  </defs>
  <g id="icon">
    <g>
      <path class="st0" d="M107.2,34.7c.2-7.9,2.3-15.4,7.8-20.6,14-13.1,29.6-5.8,42.5-5,12.9-.8,28.5-8.1,42.5,5,14.4,13.6,5.7,43.4-1.2,54.5-1,1.7-1.8,3.5-2.3,5.4-4.1,16.8-13.5,49.6-21.4,56.4-3,2.6-8.4.9-8.4-3.1,0-9.3-.5-21-1-25-.8-6.5-2.2-8.8-8.2-9.2-6,.4-7.5,2.7-8.3,9.2-.5,4.1-1,15.8-1,25s-5.4,5.7-8.4,3.1c-7.3-6.2-15.8-34.6-20.3-52.2"/>
      <path class="st0" d="M119.6,78.2c-8,10.9-22.1,19.2-30.3,21.8-1.9.6-3.6,1.5-5.2,2.7-14.1,10.2-42.5,29-52.9,29-4,0-7-4.8-4.4-7.8,6-7,13.3-16.3,15.5-19.7,3.6-5.4,4-8.1-.3-12.3-4.8-3.6-7.4-2.8-12.2,1.6-3,2.8-11,11.4-17,18.4-2.6,3-7.8.8-8.4-3.1-1.6-10.3,12.6-41.3,20.4-56.8.9-1.8,1.5-3.6,1.8-5.6,2-12.9,14.7-41.3,34.5-42.2,19.2-.9,26.3,14.8,35.5,23.8,3.2,2.4,6.9,4.5,10.7,6.7,8.5,5.2,16.9,11.4,18.4,24.6.8,6.8-1.8,13.2-6,18.9h0Z"/>
    </g>
  </g>
</svg>